<?xml version="1.0" encoding="utf-8" standalone="no"?>
<!DOCTYPE svg PUBLIC "-//W3C//DTD SVG 1.1//EN"
  "http://www.w3.org/Graphics/SVG/1.1/DTD/svg11.dtd">
<svg xmlns:xlink="http://www.w3.org/1999/xlink" width="557.73195pt" height="485.327281pt" viewBox="0 0 557.73195 485.327281" xmlns="http://www.w3.org/2000/svg" version="1.1">
 <metadata>
  <rdf:RDF xmlns:dc="http://purl.org/dc/elements/1.1/" xmlns:cc="http://creativecommons.org/ns#" xmlns:rdf="http://www.w3.org/1999/02/22-rdf-syntax-ns#">
   <cc:Work>
    <dc:type rdf:resource="http://purl.org/dc/dcmitype/StillImage"/>
    <dc:date>2026-02-12T10:03:35.851696</dc:date>
    <dc:format>image/svg+xml</dc:format>
    <dc:creator>
     <cc:Agent>
      <dc:title>Matplotlib v3.10.6, https://matplotlib.org/</dc:title>
     </cc:Agent>
    </dc:creator>
   </cc:Work>
  </rdf:RDF>
 </metadata>
 <defs>
  <style type="text/css">*{stroke-linejoin: round; stroke-linecap: butt}</style>
 </defs>
 <g id="figure_1">
  <g id="patch_1">
   <path d="M 0 485.327281 
L 557.73195 485.327281 
L 557.73195 0 
L 0 0 
z
" style="fill: #ffffff"/>
  </g>
  <g id="axes_1">
   <g id="patch_2">
    <path d="M 434.73025 257.602625 
C 434.73025 231.05397 429.500744 204.763466 419.341013 180.235707 
C 409.181283 155.707947 394.288909 133.419935 375.516174 114.647201 
C 356.74344 95.874466 334.455428 80.982092 309.927668 70.822362 
C 285.399909 60.662631 259.109405 55.433125 232.56075 55.433125 
C 206.012095 55.433125 179.721591 60.662631 155.193832 70.822362 
C 130.666072 80.982092 108.37806 95.874466 89.605326 114.647201 
C 70.832591 133.419935 55.940217 155.707947 45.780487 180.235707 
C 35.620756 204.763466 30.39125 231.05397 30.39125 257.602625 
C 30.39125 284.15128 35.620756 310.441784 45.780487 334.969543 
C 55.940217 359.497303 70.832591 381.785315 89.605326 400.558049 
C 108.37806 419.330784 130.666072 434.223158 155.193832 444.382888 
C 179.721591 454.542619 206.012095 459.772125 232.56075 459.772125 
C 259.109405 459.772125 285.399909 454.542619 309.927668 444.382888 
C 334.455428 434.223158 356.74344 419.330784 375.516174 400.558049 
C 394.288909 381.785315 409.181283 359.497303 419.341013 334.969543 
C 429.500744 310.441784 434.73025 284.15128 434.73025 257.602625 
M 232.56075 257.602625 
C 232.56075 257.602625 232.56075 257.602625 232.56075 257.602625 
C 232.56075 257.602625 232.56075 257.602625 232.56075 257.602625 
C 232.56075 257.602625 232.56075 257.602625 232.56075 257.602625 
C 232.56075 257.602625 232.56075 257.602625 232.56075 257.602625 
C 232.56075 257.602625 232.56075 257.602625 232.56075 257.602625 
C 232.56075 257.602625 232.56075 257.602625 232.56075 257.602625 
C 232.56075 257.602625 232.56075 257.602625 232.56075 257.602625 
C 232.56075 257.602625 232.56075 257.602625 232.56075 257.602625 
C 232.56075 257.602625 232.56075 257.602625 232.56075 257.602625 
C 232.56075 257.602625 232.56075 257.602625 232.56075 257.602625 
C 232.56075 257.602625 232.56075 257.602625 232.56075 257.602625 
C 232.56075 257.602625 232.56075 257.602625 232.56075 257.602625 
C 232.56075 257.602625 232.56075 257.602625 232.56075 257.602625 
C 232.56075 257.602625 232.56075 257.602625 232.56075 257.602625 
C 232.56075 257.602625 232.56075 257.602625 232.56075 257.602625 
C 232.56075 257.602625 232.56075 257.602625 232.56075 257.602625 
z
" style="fill: #ffffff"/>
   </g>
   <g id="patch_3">
    <path d="M 414.5133 257.602625 
L 390.136281 166.62635 
L 323.537025 100.027094 
L 232.56075 75.650075 
L 141.584475 100.027094 
L 57.476827 156.517875 
L 70.82515 257.602625 
L 74.985219 348.5789 
L 182.018375 345.144586 
L 232.56075 459.772125 
L 262.886175 310.127802 
L 407.644673 358.687375 
z
" clip-path="url(#p6582f21c94)" style="fill: #2196f3; opacity: 0.1; stroke: #2196f3; stroke-linejoin: miter"/>
   </g>
   <g id="patch_4">
    <path d="M 353.86245 257.602625 
L 337.611104 196.951775 
L 303.320075 135.043879 
L 232.56075 75.650075 
L 171.9099 152.552271 
L 127.510396 196.951775 
L 131.476 257.602625 
L 92.493612 338.470425 
L 171.9099 362.652979 
L 232.56075 378.904325 
L 293.2116 362.652979 
L 355.119496 328.36195 
z
" clip-path="url(#p6582f21c94)" style="fill: #f44336; opacity: 0.1; stroke: #f44336; stroke-linejoin: miter"/>
   </g>
   <g id="patch_5">
    <path d="M 414.5133 257.602625 
L 372.627888 176.734825 
L 333.6455 82.518702 
L 232.56075 95.867025 
L 141.584475 100.027094 
L 110.002004 186.8433 
L 70.82515 257.602625 
L 57.476827 358.687375 
L 171.9099 362.652979 
L 232.56075 378.904325 
L 262.886175 310.127802 
L 355.119496 328.36195 
z
" clip-path="url(#p6582f21c94)" style="fill: #4caf50; opacity: 0.1; stroke: #4caf50; stroke-linejoin: miter"/>
   </g>
   <g id="matplotlib.axis_1">
    <g id="xtick_1">
     <g id="line2d_1">
      <path d="M 232.56075 257.602625 
L 434.73025 257.602625 
" clip-path="url(#p6582f21c94)" style="fill: none; stroke: #b0b0b0; stroke-opacity: 0.3; stroke-width: 0.8; stroke-linecap: square"/>
     </g>
     <g id="text_1">
      <!-- D01 -->
      <g transform="translate(439.539 260.086062) scale(0.09 -0.09)">
       <defs>
        <path id="DejaVuSans-44" d="M 1259 4147 
L 1259 519 
L 2022 519 
Q 2988 519 3436 956 
Q 3884 1394 3884 2338 
Q 3884 3275 3436 3711 
Q 2988 4147 2022 4147 
L 1259 4147 
z
M 628 4666 
L 1925 4666 
Q 3281 4666 3915 4102 
Q 4550 3538 4550 2338 
Q 4550 1131 3912 565 
Q 3275 0 1925 0 
L 628 0 
L 628 4666 
z
" transform="scale(0.015625)"/>
        <path id="DejaVuSans-30" d="M 2034 4250 
Q 1547 4250 1301 3770 
Q 1056 3291 1056 2328 
Q 1056 1369 1301 889 
Q 1547 409 2034 409 
Q 2525 409 2770 889 
Q 3016 1369 3016 2328 
Q 3016 3291 2770 3770 
Q 2525 4250 2034 4250 
z
M 2034 4750 
Q 2819 4750 3233 4129 
Q 3647 3509 3647 2328 
Q 3647 1150 3233 529 
Q 2819 -91 2034 -91 
Q 1250 -91 836 529 
Q 422 1150 422 2328 
Q 422 3509 836 4129 
Q 1250 4750 2034 4750 
z
" transform="scale(0.015625)"/>
        <path id="DejaVuSans-31" d="M 794 531 
L 1825 531 
L 1825 4091 
L 703 3866 
L 703 4441 
L 1819 4666 
L 2450 4666 
L 2450 531 
L 3481 531 
L 3481 0 
L 794 0 
L 794 531 
z
" transform="scale(0.015625)"/>
       </defs>
       <use xlink:href="#DejaVuSans-44"/>
       <use xlink:href="#DejaVuSans-30" transform="translate(77.001953 0)"/>
       <use xlink:href="#DejaVuSans-31" transform="translate(140.625 0)"/>
      </g>
     </g>
    </g>
    <g id="xtick_2">
     <g id="line2d_2">
      <path d="M 232.56075 257.602625 
L 407.644673 156.517875 
" clip-path="url(#p6582f21c94)" style="fill: none; stroke: #b0b0b0; stroke-opacity: 0.3; stroke-width: 0.8; stroke-linecap: square"/>
     </g>
     <g id="text_2">
      <!-- D02 -->
      <g transform="translate(410.577779 152.001312) scale(0.09 -0.09)">
       <defs>
        <path id="DejaVuSans-32" d="M 1228 531 
L 3431 531 
L 3431 0 
L 469 0 
L 469 531 
Q 828 903 1448 1529 
Q 2069 2156 2228 2338 
Q 2531 2678 2651 2914 
Q 2772 3150 2772 3378 
Q 2772 3750 2511 3984 
Q 2250 4219 1831 4219 
Q 1534 4219 1204 4116 
Q 875 4013 500 3803 
L 500 4441 
Q 881 4594 1212 4672 
Q 1544 4750 1819 4750 
Q 2544 4750 2975 4387 
Q 3406 4025 3406 3419 
Q 3406 3131 3298 2873 
Q 3191 2616 2906 2266 
Q 2828 2175 2409 1742 
Q 1991 1309 1228 531 
z
" transform="scale(0.015625)"/>
       </defs>
       <use xlink:href="#DejaVuSans-44"/>
       <use xlink:href="#DejaVuSans-30" transform="translate(77.001953 0)"/>
       <use xlink:href="#DejaVuSans-32" transform="translate(140.625 0)"/>
      </g>
     </g>
    </g>
    <g id="xtick_3">
     <g id="line2d_3">
      <path d="M 232.56075 257.602625 
L 333.6455 82.518702 
" clip-path="url(#p6582f21c94)" style="fill: none; stroke: #b0b0b0; stroke-opacity: 0.3; stroke-width: 0.8; stroke-linecap: square"/>
     </g>
     <g id="text_3">
      <!-- D03 -->
      <g transform="translate(331.45425 72.877784) scale(0.09 -0.09)">
       <defs>
        <path id="DejaVuSans-33" d="M 2597 2516 
Q 3050 2419 3304 2112 
Q 3559 1806 3559 1356 
Q 3559 666 3084 287 
Q 2609 -91 1734 -91 
Q 1441 -91 1130 -33 
Q 819 25 488 141 
L 488 750 
Q 750 597 1062 519 
Q 1375 441 1716 441 
Q 2309 441 2620 675 
Q 2931 909 2931 1356 
Q 2931 1769 2642 2001 
Q 2353 2234 1838 2234 
L 1294 2234 
L 1294 2753 
L 1863 2753 
Q 2328 2753 2575 2939 
Q 2822 3125 2822 3475 
Q 2822 3834 2567 4026 
Q 2313 4219 1838 4219 
Q 1578 4219 1281 4162 
Q 984 4106 628 3988 
L 628 4550 
Q 988 4650 1302 4700 
Q 1616 4750 1894 4750 
Q 2613 4750 3031 4423 
Q 3450 4097 3450 3541 
Q 3450 3153 3228 2886 
Q 3006 2619 2597 2516 
z
" transform="scale(0.015625)"/>
       </defs>
       <use xlink:href="#DejaVuSans-44"/>
       <use xlink:href="#DejaVuSans-30" transform="translate(77.001953 0)"/>
       <use xlink:href="#DejaVuSans-33" transform="translate(140.625 0)"/>
      </g>
     </g>
    </g>
    <g id="xtick_4">
     <g id="line2d_4">
      <path d="M 232.56075 257.602625 
L 232.56075 55.433125 
" clip-path="url(#p6582f21c94)" style="fill: none; stroke: #b0b0b0; stroke-opacity: 0.3; stroke-width: 0.8; stroke-linecap: square"/>
     </g>
     <g id="text_4">
      <!-- D04 -->
      <g transform="translate(223.3695 43.916562) scale(0.09 -0.09)">
       <defs>
        <path id="DejaVuSans-34" d="M 2419 4116 
L 825 1625 
L 2419 1625 
L 2419 4116 
z
M 2253 4666 
L 3047 4666 
L 3047 1625 
L 3713 1625 
L 3713 1100 
L 3047 1100 
L 3047 0 
L 2419 0 
L 2419 1100 
L 313 1100 
L 313 1709 
L 2253 4666 
z
" transform="scale(0.015625)"/>
       </defs>
       <use xlink:href="#DejaVuSans-44"/>
       <use xlink:href="#DejaVuSans-30" transform="translate(77.001953 0)"/>
       <use xlink:href="#DejaVuSans-34" transform="translate(140.625 0)"/>
      </g>
     </g>
    </g>
    <g id="xtick_5">
     <g id="line2d_5">
      <path d="M 232.56075 257.602625 
L 131.476 82.518702 
" clip-path="url(#p6582f21c94)" style="fill: none; stroke: #b0b0b0; stroke-opacity: 0.3; stroke-width: 0.8; stroke-linecap: square"/>
     </g>
     <g id="text_5">
      <!-- D05 -->
      <g transform="translate(115.28475 72.877784) scale(0.09 -0.09)">
       <defs>
        <path id="DejaVuSans-35" d="M 691 4666 
L 3169 4666 
L 3169 4134 
L 1269 4134 
L 1269 2991 
Q 1406 3038 1543 3061 
Q 1681 3084 1819 3084 
Q 2600 3084 3056 2656 
Q 3513 2228 3513 1497 
Q 3513 744 3044 326 
Q 2575 -91 1722 -91 
Q 1428 -91 1123 -41 
Q 819 9 494 109 
L 494 744 
Q 775 591 1075 516 
Q 1375 441 1709 441 
Q 2250 441 2565 725 
Q 2881 1009 2881 1497 
Q 2881 1984 2565 2268 
Q 2250 2553 1709 2553 
Q 1456 2553 1204 2497 
Q 953 2441 691 2322 
L 691 4666 
z
" transform="scale(0.015625)"/>
       </defs>
       <use xlink:href="#DejaVuSans-44"/>
       <use xlink:href="#DejaVuSans-30" transform="translate(77.001953 0)"/>
       <use xlink:href="#DejaVuSans-35" transform="translate(140.625 0)"/>
      </g>
     </g>
    </g>
    <g id="xtick_6">
     <g id="line2d_6">
      <path d="M 232.56075 257.602625 
L 57.476827 156.517875 
" clip-path="url(#p6582f21c94)" style="fill: none; stroke: #b0b0b0; stroke-opacity: 0.3; stroke-width: 0.8; stroke-linecap: square"/>
     </g>
     <g id="text_6">
      <!-- D06 -->
      <g transform="translate(36.161221 152.001312) scale(0.09 -0.09)">
       <defs>
        <path id="DejaVuSans-36" d="M 2113 2584 
Q 1688 2584 1439 2293 
Q 1191 2003 1191 1497 
Q 1191 994 1439 701 
Q 1688 409 2113 409 
Q 2538 409 2786 701 
Q 3034 994 3034 1497 
Q 3034 2003 2786 2293 
Q 2538 2584 2113 2584 
z
M 3366 4563 
L 3366 3988 
Q 3128 4100 2886 4159 
Q 2644 4219 2406 4219 
Q 1781 4219 1451 3797 
Q 1122 3375 1075 2522 
Q 1259 2794 1537 2939 
Q 1816 3084 2150 3084 
Q 2853 3084 3261 2657 
Q 3669 2231 3669 1497 
Q 3669 778 3244 343 
Q 2819 -91 2113 -91 
Q 1303 -91 875 529 
Q 447 1150 447 2328 
Q 447 3434 972 4092 
Q 1497 4750 2381 4750 
Q 2619 4750 2861 4703 
Q 3103 4656 3366 4563 
z
" transform="scale(0.015625)"/>
       </defs>
       <use xlink:href="#DejaVuSans-44"/>
       <use xlink:href="#DejaVuSans-30" transform="translate(77.001953 0)"/>
       <use xlink:href="#DejaVuSans-36" transform="translate(140.625 0)"/>
      </g>
     </g>
    </g>
    <g id="xtick_7">
     <g id="line2d_7">
      <path d="M 232.56075 257.602625 
L 30.39125 257.602625 
" clip-path="url(#p6582f21c94)" style="fill: none; stroke: #b0b0b0; stroke-opacity: 0.3; stroke-width: 0.8; stroke-linecap: square"/>
     </g>
     <g id="text_7">
      <!-- D07 -->
      <g transform="translate(7.2 260.086062) scale(0.09 -0.09)">
       <defs>
        <path id="DejaVuSans-37" d="M 525 4666 
L 3525 4666 
L 3525 4397 
L 1831 0 
L 1172 0 
L 2766 4134 
L 525 4134 
L 525 4666 
z
" transform="scale(0.015625)"/>
       </defs>
       <use xlink:href="#DejaVuSans-44"/>
       <use xlink:href="#DejaVuSans-30" transform="translate(77.001953 0)"/>
       <use xlink:href="#DejaVuSans-37" transform="translate(140.625 0)"/>
      </g>
     </g>
    </g>
    <g id="xtick_8">
     <g id="line2d_8">
      <path d="M 232.56075 257.602625 
L 57.476827 358.687375 
" clip-path="url(#p6582f21c94)" style="fill: none; stroke: #b0b0b0; stroke-opacity: 0.3; stroke-width: 0.8; stroke-linecap: square"/>
     </g>
     <g id="text_8">
      <!-- D08 -->
      <g transform="translate(36.161221 368.170812) scale(0.09 -0.09)">
       <defs>
        <path id="DejaVuSans-38" d="M 2034 2216 
Q 1584 2216 1326 1975 
Q 1069 1734 1069 1313 
Q 1069 891 1326 650 
Q 1584 409 2034 409 
Q 2484 409 2743 651 
Q 3003 894 3003 1313 
Q 3003 1734 2745 1975 
Q 2488 2216 2034 2216 
z
M 1403 2484 
Q 997 2584 770 2862 
Q 544 3141 544 3541 
Q 544 4100 942 4425 
Q 1341 4750 2034 4750 
Q 2731 4750 3128 4425 
Q 3525 4100 3525 3541 
Q 3525 3141 3298 2862 
Q 3072 2584 2669 2484 
Q 3125 2378 3379 2068 
Q 3634 1759 3634 1313 
Q 3634 634 3220 271 
Q 2806 -91 2034 -91 
Q 1263 -91 848 271 
Q 434 634 434 1313 
Q 434 1759 690 2068 
Q 947 2378 1403 2484 
z
M 1172 3481 
Q 1172 3119 1398 2916 
Q 1625 2713 2034 2713 
Q 2441 2713 2670 2916 
Q 2900 3119 2900 3481 
Q 2900 3844 2670 4047 
Q 2441 4250 2034 4250 
Q 1625 4250 1398 4047 
Q 1172 3844 1172 3481 
z
" transform="scale(0.015625)"/>
       </defs>
       <use xlink:href="#DejaVuSans-44"/>
       <use xlink:href="#DejaVuSans-30" transform="translate(77.001953 0)"/>
       <use xlink:href="#DejaVuSans-38" transform="translate(140.625 0)"/>
      </g>
     </g>
    </g>
    <g id="xtick_9">
     <g id="line2d_9">
      <path d="M 232.56075 257.602625 
L 131.476 432.686548 
" clip-path="url(#p6582f21c94)" style="fill: none; stroke: #b0b0b0; stroke-opacity: 0.3; stroke-width: 0.8; stroke-linecap: square"/>
     </g>
     <g id="text_9">
      <!-- D09 -->
      <g transform="translate(115.28475 447.294341) scale(0.09 -0.09)">
       <defs>
        <path id="DejaVuSans-39" d="M 703 97 
L 703 672 
Q 941 559 1184 500 
Q 1428 441 1663 441 
Q 2288 441 2617 861 
Q 2947 1281 2994 2138 
Q 2813 1869 2534 1725 
Q 2256 1581 1919 1581 
Q 1219 1581 811 2004 
Q 403 2428 403 3163 
Q 403 3881 828 4315 
Q 1253 4750 1959 4750 
Q 2769 4750 3195 4129 
Q 3622 3509 3622 2328 
Q 3622 1225 3098 567 
Q 2575 -91 1691 -91 
Q 1453 -91 1209 -44 
Q 966 3 703 97 
z
M 1959 2075 
Q 2384 2075 2632 2365 
Q 2881 2656 2881 3163 
Q 2881 3666 2632 3958 
Q 2384 4250 1959 4250 
Q 1534 4250 1286 3958 
Q 1038 3666 1038 3163 
Q 1038 2656 1286 2365 
Q 1534 2075 1959 2075 
z
" transform="scale(0.015625)"/>
       </defs>
       <use xlink:href="#DejaVuSans-44"/>
       <use xlink:href="#DejaVuSans-30" transform="translate(77.001953 0)"/>
       <use xlink:href="#DejaVuSans-39" transform="translate(140.625 0)"/>
      </g>
     </g>
    </g>
    <g id="xtick_10">
     <g id="line2d_10">
      <path d="M 232.56075 257.602625 
L 232.56075 459.772125 
" clip-path="url(#p6582f21c94)" style="fill: none; stroke: #b0b0b0; stroke-opacity: 0.3; stroke-width: 0.8; stroke-linecap: square"/>
     </g>
     <g id="text_10">
      <!-- D10 -->
      <g transform="translate(223.3695 476.255562) scale(0.09 -0.09)">
       <use xlink:href="#DejaVuSans-44"/>
       <use xlink:href="#DejaVuSans-31" transform="translate(77.001953 0)"/>
       <use xlink:href="#DejaVuSans-30" transform="translate(140.625 0)"/>
      </g>
     </g>
    </g>
    <g id="xtick_11">
     <g id="line2d_11">
      <path d="M 232.56075 257.602625 
L 333.6455 432.686548 
" clip-path="url(#p6582f21c94)" style="fill: none; stroke: #b0b0b0; stroke-opacity: 0.3; stroke-width: 0.8; stroke-linecap: square"/>
     </g>
     <g id="text_11">
      <!-- D11 -->
      <g transform="translate(331.45425 447.294341) scale(0.09 -0.09)">
       <use xlink:href="#DejaVuSans-44"/>
       <use xlink:href="#DejaVuSans-31" transform="translate(77.001953 0)"/>
       <use xlink:href="#DejaVuSans-31" transform="translate(140.625 0)"/>
      </g>
     </g>
    </g>
    <g id="xtick_12">
     <g id="line2d_12">
      <path d="M 232.56075 257.602625 
L 407.644673 358.687375 
" clip-path="url(#p6582f21c94)" style="fill: none; stroke: #b0b0b0; stroke-opacity: 0.3; stroke-width: 0.8; stroke-linecap: square"/>
     </g>
     <g id="text_12">
      <!-- D12 -->
      <g transform="translate(410.577779 368.170813) scale(0.09 -0.09)">
       <use xlink:href="#DejaVuSans-44"/>
       <use xlink:href="#DejaVuSans-31" transform="translate(77.001953 0)"/>
       <use xlink:href="#DejaVuSans-32" transform="translate(140.625 0)"/>
      </g>
     </g>
    </g>
   </g>
   <g id="matplotlib.axis_2">
    <g id="ytick_1">
     <g id="line2d_13">
      <path d="M 272.99465 257.602625 
C 272.99465 252.292894 271.948749 247.034793 269.916803 242.129241 
C 267.884857 237.223689 264.906382 232.766087 261.151835 229.01154 
C 257.397288 225.256993 252.939686 222.278518 248.034134 220.246572 
C 243.128582 218.214626 237.870481 217.168725 232.56075 217.168725 
C 227.251019 217.168725 221.992918 218.214626 217.087366 220.246572 
C 212.181814 222.278518 207.724212 225.256993 203.969665 229.01154 
C 200.215118 232.766087 197.236643 237.223689 195.204697 242.129241 
C 193.172751 247.034793 192.12685 252.292894 192.12685 257.602625 
C 192.12685 262.912356 193.172751 268.170457 195.204697 273.076009 
C 197.236643 277.981561 200.215118 282.439163 203.969665 286.19371 
C 207.724212 289.948257 212.181814 292.926732 217.087366 294.958678 
C 221.992918 296.990624 227.251019 298.036525 232.56075 298.036525 
C 237.870481 298.036525 243.128582 296.990624 248.034134 294.958678 
C 252.939686 292.926732 257.397288 289.948257 261.151835 286.19371 
C 264.906382 282.439163 267.884857 277.981561 269.916803 273.076009 
C 271.948749 268.170457 272.99465 262.912356 272.99465 257.602625 
" clip-path="url(#p6582f21c94)" style="fill: none; stroke: #b0b0b0; stroke-opacity: 0.3; stroke-width: 0.8; stroke-linecap: square"/>
     </g>
     <g id="text_13">
      <!-- 2 -->
      <g transform="translate(269.916803 239.841585) scale(0.11 -0.11)">
       <use xlink:href="#DejaVuSans-32"/>
      </g>
     </g>
    </g>
    <g id="ytick_2">
     <g id="line2d_14">
      <path d="M 313.42855 257.602625 
C 313.42855 246.983163 311.336748 236.466961 307.272855 226.655858 
C 303.208963 216.844754 297.252013 207.929549 289.74292 200.420455 
C 282.233826 192.911362 273.318621 186.954412 263.507517 182.89052 
C 253.696414 178.826627 243.180212 176.734825 232.56075 176.734825 
C 221.941288 176.734825 211.425086 178.826627 201.613983 182.89052 
C 191.802879 186.954412 182.887674 192.911362 175.37858 200.420455 
C 167.869487 207.929549 161.912537 216.844754 157.848645 226.655858 
C 153.784752 236.466961 151.69295 246.983163 151.69295 257.602625 
C 151.69295 268.222087 153.784752 278.738289 157.848645 288.549392 
C 161.912537 298.360496 167.869487 307.275701 175.37858 314.784795 
C 182.887674 322.293888 191.802879 328.250838 201.613983 332.31473 
C 211.425086 336.378623 221.941288 338.470425 232.56075 338.470425 
C 243.180212 338.470425 253.696414 336.378623 263.507517 332.31473 
C 273.318621 328.250838 282.233826 322.293888 289.74292 314.784795 
C 297.252013 307.275701 303.208963 298.360496 307.272855 288.549392 
C 311.336748 278.738289 313.42855 268.222087 313.42855 257.602625 
" clip-path="url(#p6582f21c94)" style="fill: none; stroke: #b0b0b0; stroke-opacity: 0.3; stroke-width: 0.8; stroke-linecap: square"/>
     </g>
     <g id="text_14">
      <!-- 4 -->
      <g transform="translate(307.272855 224.368201) scale(0.11 -0.11)">
       <use xlink:href="#DejaVuSans-34"/>
      </g>
     </g>
    </g>
    <g id="ytick_3">
     <g id="line2d_15">
      <path d="M 353.86245 257.602625 
C 353.86245 241.673432 350.724746 225.89913 344.628908 211.182474 
C 338.53307 196.465818 329.597645 183.093011 318.334005 171.82937 
C 307.070364 160.56573 293.697557 151.630305 278.980901 145.534467 
C 264.264245 139.438629 248.489943 136.300925 232.56075 136.300925 
C 216.631557 136.300925 200.857255 139.438629 186.140599 145.534467 
C 171.423943 151.630305 158.051136 160.56573 146.787495 171.82937 
C 135.523855 183.093011 126.58843 196.465818 120.492592 211.182474 
C 114.396754 225.89913 111.25905 241.673432 111.25905 257.602625 
C 111.25905 273.531818 114.396754 289.30612 120.492592 304.022776 
C 126.58843 318.739432 135.523855 332.112239 146.787495 343.37588 
C 158.051136 354.63952 171.423943 363.574945 186.140599 369.670783 
C 200.857255 375.766621 216.631557 378.904325 232.56075 378.904325 
C 248.489943 378.904325 264.264245 375.766621 278.980901 369.670783 
C 293.697557 363.574945 307.070364 354.63952 318.334005 343.37588 
C 329.597645 332.112239 338.53307 318.739432 344.628908 304.022776 
C 350.724746 289.30612 353.86245 273.531818 353.86245 257.602625 
" clip-path="url(#p6582f21c94)" style="fill: none; stroke: #b0b0b0; stroke-opacity: 0.3; stroke-width: 0.8; stroke-linecap: square"/>
     </g>
     <g id="text_15">
      <!-- 6 -->
      <g transform="translate(344.628908 208.894818) scale(0.11 -0.11)">
       <use xlink:href="#DejaVuSans-36"/>
      </g>
     </g>
    </g>
    <g id="ytick_4">
     <g id="line2d_16">
      <path d="M 394.29635 257.602625 
C 394.29635 236.363701 390.112745 215.331298 381.984961 195.70909 
C 373.857176 176.086883 361.943277 158.256473 346.92509 143.238285 
C 331.906902 128.220098 314.076492 116.306199 294.454285 108.178414 
C 274.832077 100.05063 253.799674 95.867025 232.56075 95.867025 
C 211.321826 95.867025 190.289423 100.05063 170.667215 108.178414 
C 151.045008 116.306199 133.214598 128.220098 118.19641 143.238285 
C 103.178223 158.256473 91.264324 176.086883 83.136539 195.70909 
C 75.008755 215.331298 70.82515 236.363701 70.82515 257.602625 
C 70.82515 278.841549 75.008755 299.873952 83.136539 319.49616 
C 91.264324 339.118367 103.178223 356.948777 118.19641 371.966965 
C 133.214598 386.985152 151.045008 398.899051 170.667215 407.026836 
C 190.289423 415.15462 211.321826 419.338225 232.56075 419.338225 
C 253.799674 419.338225 274.832077 415.15462 294.454285 407.026836 
C 314.076492 398.899051 331.906902 386.985152 346.92509 371.966965 
C 361.943277 356.948777 373.857176 339.118367 381.984961 319.49616 
C 390.112745 299.873952 394.29635 278.841549 394.29635 257.602625 
" clip-path="url(#p6582f21c94)" style="fill: none; stroke: #b0b0b0; stroke-opacity: 0.3; stroke-width: 0.8; stroke-linecap: square"/>
     </g>
     <g id="text_16">
      <!-- 8 -->
      <g transform="translate(381.984961 193.421434) scale(0.11 -0.11)">
       <use xlink:href="#DejaVuSans-38"/>
      </g>
     </g>
    </g>
    <g id="ytick_5">
     <g id="line2d_17">
      <path d="M 434.73025 257.602625 
C 434.73025 231.05397 429.500744 204.763466 419.341013 180.235707 
C 409.181283 155.707947 394.288909 133.419935 375.516174 114.647201 
C 356.74344 95.874466 334.455428 80.982092 309.927668 70.822362 
C 285.399909 60.662631 259.109405 55.433125 232.56075 55.433125 
C 206.012095 55.433125 179.721591 60.662631 155.193832 70.822362 
C 130.666072 80.982092 108.37806 95.874466 89.605326 114.647201 
C 70.832591 133.419935 55.940217 155.707947 45.780487 180.235707 
C 35.620756 204.763466 30.39125 231.05397 30.39125 257.602625 
C 30.39125 284.15128 35.620756 310.441784 45.780487 334.969543 
C 55.940217 359.497303 70.832591 381.785315 89.605326 400.558049 
C 108.37806 419.330784 130.666072 434.223158 155.193832 444.382888 
C 179.721591 454.542619 206.012095 459.772125 232.56075 459.772125 
C 259.109405 459.772125 285.399909 454.542619 309.927668 444.382888 
C 334.455428 434.223158 356.74344 419.330784 375.516174 400.558049 
C 394.288909 381.785315 409.181283 359.497303 419.341013 334.969543 
C 429.500744 310.441784 434.73025 284.15128 434.73025 257.602625 
" clip-path="url(#p6582f21c94)" style="fill: none; stroke: #b0b0b0; stroke-opacity: 0.3; stroke-width: 0.8; stroke-linecap: square"/>
     </g>
     <g id="text_17">
      <!-- 10 -->
      <g transform="translate(419.341013 177.948051) scale(0.11 -0.11)">
       <use xlink:href="#DejaVuSans-31"/>
       <use xlink:href="#DejaVuSans-30" transform="translate(63.623047 0)"/>
      </g>
     </g>
    </g>
   </g>
   <g id="line2d_18">
    <path d="M 414.5133 257.602625 
L 390.136281 166.62635 
L 323.537025 100.027094 
L 232.56075 75.650075 
L 141.584475 100.027094 
L 57.476827 156.517875 
L 70.82515 257.602625 
L 74.985219 348.5789 
L 182.018375 345.144586 
L 232.56075 459.772125 
L 262.886175 310.127802 
L 407.644673 358.687375 
L 414.5133 257.602625 
" clip-path="url(#p6582f21c94)" style="fill: none; stroke: #2196f3; stroke-width: 2; stroke-linecap: square"/>
    <defs>
     <path id="m7b5138f90b" d="M 0 2 
C 0.530406 2 1.03916 1.789267 1.414214 1.414214 
C 1.789267 1.03916 2 0.530406 2 0 
C 2 -0.530406 1.789267 -1.03916 1.414214 -1.414214 
C 1.03916 -1.789267 0.530406 -2 0 -2 
C -0.530406 -2 -1.03916 -1.789267 -1.414214 -1.414214 
C -1.789267 -1.03916 -2 -0.530406 -2 0 
C -2 0.530406 -1.789267 1.03916 -1.414214 1.414214 
C -1.03916 1.789267 -0.530406 2 0 2 
z
" style="stroke: #2196f3"/>
    </defs>
    <g clip-path="url(#p6582f21c94)">
     <use xlink:href="#m7b5138f90b" x="414.5133" y="257.602625" style="fill: #2196f3; stroke: #2196f3"/>
     <use xlink:href="#m7b5138f90b" x="390.136281" y="166.62635" style="fill: #2196f3; stroke: #2196f3"/>
     <use xlink:href="#m7b5138f90b" x="323.537025" y="100.027094" style="fill: #2196f3; stroke: #2196f3"/>
     <use xlink:href="#m7b5138f90b" x="232.56075" y="75.650075" style="fill: #2196f3; stroke: #2196f3"/>
     <use xlink:href="#m7b5138f90b" x="141.584475" y="100.027094" style="fill: #2196f3; stroke: #2196f3"/>
     <use xlink:href="#m7b5138f90b" x="57.476827" y="156.517875" style="fill: #2196f3; stroke: #2196f3"/>
     <use xlink:href="#m7b5138f90b" x="70.82515" y="257.602625" style="fill: #2196f3; stroke: #2196f3"/>
     <use xlink:href="#m7b5138f90b" x="74.985219" y="348.5789" style="fill: #2196f3; stroke: #2196f3"/>
     <use xlink:href="#m7b5138f90b" x="182.018375" y="345.144586" style="fill: #2196f3; stroke: #2196f3"/>
     <use xlink:href="#m7b5138f90b" x="232.56075" y="459.772125" style="fill: #2196f3; stroke: #2196f3"/>
     <use xlink:href="#m7b5138f90b" x="262.886175" y="310.127802" style="fill: #2196f3; stroke: #2196f3"/>
     <use xlink:href="#m7b5138f90b" x="407.644673" y="358.687375" style="fill: #2196f3; stroke: #2196f3"/>
     <use xlink:href="#m7b5138f90b" x="414.5133" y="257.602625" style="fill: #2196f3; stroke: #2196f3"/>
    </g>
   </g>
   <g id="line2d_19">
    <path d="M 353.86245 257.602625 
L 337.611104 196.951775 
L 303.320075 135.043879 
L 232.56075 75.650075 
L 171.9099 152.552271 
L 127.510396 196.951775 
L 131.476 257.602625 
L 92.493612 338.470425 
L 171.9099 362.652979 
L 232.56075 378.904325 
L 293.2116 362.652979 
L 355.119496 328.36195 
L 353.86245 257.602625 
" clip-path="url(#p6582f21c94)" style="fill: none; stroke: #f44336; stroke-width: 2; stroke-linecap: square"/>
    <defs>
     <path id="m573a0c5c84" d="M 0 2 
C 0.530406 2 1.03916 1.789267 1.414214 1.414214 
C 1.789267 1.03916 2 0.530406 2 0 
C 2 -0.530406 1.789267 -1.03916 1.414214 -1.414214 
C 1.03916 -1.789267 0.530406 -2 0 -2 
C -0.530406 -2 -1.03916 -1.789267 -1.414214 -1.414214 
C -1.789267 -1.03916 -2 -0.530406 -2 0 
C -2 0.530406 -1.789267 1.03916 -1.414214 1.414214 
C -1.03916 1.789267 -0.530406 2 0 2 
z
" style="stroke: #f44336"/>
    </defs>
    <g clip-path="url(#p6582f21c94)">
     <use xlink:href="#m573a0c5c84" x="353.86245" y="257.602625" style="fill: #f44336; stroke: #f44336"/>
     <use xlink:href="#m573a0c5c84" x="337.611104" y="196.951775" style="fill: #f44336; stroke: #f44336"/>
     <use xlink:href="#m573a0c5c84" x="303.320075" y="135.043879" style="fill: #f44336; stroke: #f44336"/>
     <use xlink:href="#m573a0c5c84" x="232.56075" y="75.650075" style="fill: #f44336; stroke: #f44336"/>
     <use xlink:href="#m573a0c5c84" x="171.9099" y="152.552271" style="fill: #f44336; stroke: #f44336"/>
     <use xlink:href="#m573a0c5c84" x="127.510396" y="196.951775" style="fill: #f44336; stroke: #f44336"/>
     <use xlink:href="#m573a0c5c84" x="131.476" y="257.602625" style="fill: #f44336; stroke: #f44336"/>
     <use xlink:href="#m573a0c5c84" x="92.493612" y="338.470425" style="fill: #f44336; stroke: #f44336"/>
     <use xlink:href="#m573a0c5c84" x="171.9099" y="362.652979" style="fill: #f44336; stroke: #f44336"/>
     <use xlink:href="#m573a0c5c84" x="232.56075" y="378.904325" style="fill: #f44336; stroke: #f44336"/>
     <use xlink:href="#m573a0c5c84" x="293.2116" y="362.652979" style="fill: #f44336; stroke: #f44336"/>
     <use xlink:href="#m573a0c5c84" x="355.119496" y="328.36195" style="fill: #f44336; stroke: #f44336"/>
     <use xlink:href="#m573a0c5c84" x="353.86245" y="257.602625" style="fill: #f44336; stroke: #f44336"/>
    </g>
   </g>
   <g id="line2d_20">
    <path d="M 414.5133 257.602625 
L 372.627888 176.734825 
L 333.6455 82.518702 
L 232.56075 95.867025 
L 141.584475 100.027094 
L 110.002004 186.8433 
L 70.82515 257.602625 
L 57.476827 358.687375 
L 171.9099 362.652979 
L 232.56075 378.904325 
L 262.886175 310.127802 
L 355.119496 328.36195 
L 414.5133 257.602625 
" clip-path="url(#p6582f21c94)" style="fill: none; stroke: #4caf50; stroke-width: 2; stroke-linecap: square"/>
    <defs>
     <path id="m6a24a4d678" d="M 0 2 
C 0.530406 2 1.03916 1.789267 1.414214 1.414214 
C 1.789267 1.03916 2 0.530406 2 0 
C 2 -0.530406 1.789267 -1.03916 1.414214 -1.414214 
C 1.03916 -1.789267 0.530406 -2 0 -2 
C -0.530406 -2 -1.03916 -1.789267 -1.414214 -1.414214 
C -1.789267 -1.03916 -2 -0.530406 -2 0 
C -2 0.530406 -1.789267 1.03916 -1.414214 1.414214 
C -1.03916 1.789267 -0.530406 2 0 2 
z
" style="stroke: #4caf50"/>
    </defs>
    <g clip-path="url(#p6582f21c94)">
     <use xlink:href="#m6a24a4d678" x="414.5133" y="257.602625" style="fill: #4caf50; stroke: #4caf50"/>
     <use xlink:href="#m6a24a4d678" x="372.627888" y="176.734825" style="fill: #4caf50; stroke: #4caf50"/>
     <use xlink:href="#m6a24a4d678" x="333.6455" y="82.518702" style="fill: #4caf50; stroke: #4caf50"/>
     <use xlink:href="#m6a24a4d678" x="232.56075" y="95.867025" style="fill: #4caf50; stroke: #4caf50"/>
     <use xlink:href="#m6a24a4d678" x="141.584475" y="100.027094" style="fill: #4caf50; stroke: #4caf50"/>
     <use xlink:href="#m6a24a4d678" x="110.002004" y="186.8433" style="fill: #4caf50; stroke: #4caf50"/>
     <use xlink:href="#m6a24a4d678" x="70.82515" y="257.602625" style="fill: #4caf50; stroke: #4caf50"/>
     <use xlink:href="#m6a24a4d678" x="57.476827" y="358.687375" style="fill: #4caf50; stroke: #4caf50"/>
     <use xlink:href="#m6a24a4d678" x="171.9099" y="362.652979" style="fill: #4caf50; stroke: #4caf50"/>
     <use xlink:href="#m6a24a4d678" x="232.56075" y="378.904325" style="fill: #4caf50; stroke: #4caf50"/>
     <use xlink:href="#m6a24a4d678" x="262.886175" y="310.127802" style="fill: #4caf50; stroke: #4caf50"/>
     <use xlink:href="#m6a24a4d678" x="355.119496" y="328.36195" style="fill: #4caf50; stroke: #4caf50"/>
     <use xlink:href="#m6a24a4d678" x="414.5133" y="257.602625" style="fill: #4caf50; stroke: #4caf50"/>
    </g>
   </g>
   <g id="patch_6">
    <path d="M 434.73025 257.602625 
C 434.73025 231.05397 429.500744 204.763466 419.341013 180.235707 
C 409.181283 155.707947 394.288909 133.419935 375.516174 114.647201 
C 356.74344 95.874466 334.455428 80.982092 309.927668 70.822362 
C 285.399909 60.662631 259.109405 55.433125 232.56075 55.433125 
C 206.012095 55.433125 179.721591 60.662631 155.193832 70.822362 
C 130.666072 80.982092 108.37806 95.874466 89.605326 114.647201 
C 70.832591 133.419935 55.940217 155.707947 45.780487 180.235707 
C 35.620756 204.763466 30.39125 231.05397 30.39125 257.602625 
C 30.39125 284.15128 35.620756 310.441784 45.780487 334.969543 
C 55.940217 359.497303 70.832591 381.785315 89.605326 400.558049 
C 108.37806 419.330784 130.666072 434.223158 155.193832 444.382888 
C 179.721591 454.542619 206.012095 459.772125 232.56075 459.772125 
C 259.109405 459.772125 285.399909 454.542619 309.927668 444.382888 
C 334.455428 434.223158 356.74344 419.330784 375.516174 400.558049 
C 394.288909 381.785315 409.181283 359.497303 419.341013 334.969543 
C 429.500744 310.441784 434.73025 284.15128 434.73025 257.602625 
" style="fill: none; stroke: #000000; stroke-width: 0.8; stroke-linejoin: miter; stroke-linecap: square"/>
   </g>
   <g id="text_18">
    <!-- Weltbild-Profil: 2010 vs. 2019 vs. 2025 -->
    <g transform="translate(90.371219 17.077969) scale(0.13 -0.13)">
     <defs>
      <path id="DejaVuSans-Bold-57" d="M 191 4666 
L 1344 4666 
L 2150 1275 
L 2950 4666 
L 4109 4666 
L 4909 1275 
L 5716 4666 
L 6859 4666 
L 5759 0 
L 4372 0 
L 3525 3547 
L 2688 0 
L 1300 0 
L 191 4666 
z
" transform="scale(0.015625)"/>
      <path id="DejaVuSans-Bold-65" d="M 4031 1759 
L 4031 1441 
L 1416 1441 
Q 1456 1047 1700 850 
Q 1944 653 2381 653 
Q 2734 653 3104 758 
Q 3475 863 3866 1075 
L 3866 213 
Q 3469 63 3072 -14 
Q 2675 -91 2278 -91 
Q 1328 -91 801 392 
Q 275 875 275 1747 
Q 275 2603 792 3093 
Q 1309 3584 2216 3584 
Q 3041 3584 3536 3087 
Q 4031 2591 4031 1759 
z
M 2881 2131 
Q 2881 2450 2695 2645 
Q 2509 2841 2209 2841 
Q 1884 2841 1681 2658 
Q 1478 2475 1428 2131 
L 2881 2131 
z
" transform="scale(0.015625)"/>
      <path id="DejaVuSans-Bold-6c" d="M 538 4863 
L 1656 4863 
L 1656 0 
L 538 0 
L 538 4863 
z
" transform="scale(0.015625)"/>
      <path id="DejaVuSans-Bold-74" d="M 1759 4494 
L 1759 3500 
L 2913 3500 
L 2913 2700 
L 1759 2700 
L 1759 1216 
Q 1759 972 1856 886 
Q 1953 800 2241 800 
L 2816 800 
L 2816 0 
L 1856 0 
Q 1194 0 917 276 
Q 641 553 641 1216 
L 641 2700 
L 84 2700 
L 84 3500 
L 641 3500 
L 641 4494 
L 1759 4494 
z
" transform="scale(0.015625)"/>
      <path id="DejaVuSans-Bold-62" d="M 2400 722 
Q 2759 722 2948 984 
Q 3138 1247 3138 1747 
Q 3138 2247 2948 2509 
Q 2759 2772 2400 2772 
Q 2041 2772 1848 2508 
Q 1656 2244 1656 1747 
Q 1656 1250 1848 986 
Q 2041 722 2400 722 
z
M 1656 2988 
Q 1888 3294 2169 3439 
Q 2450 3584 2816 3584 
Q 3463 3584 3878 3070 
Q 4294 2556 4294 1747 
Q 4294 938 3878 423 
Q 3463 -91 2816 -91 
Q 2450 -91 2169 54 
Q 1888 200 1656 506 
L 1656 0 
L 538 0 
L 538 4863 
L 1656 4863 
L 1656 2988 
z
" transform="scale(0.015625)"/>
      <path id="DejaVuSans-Bold-69" d="M 538 3500 
L 1656 3500 
L 1656 0 
L 538 0 
L 538 3500 
z
M 538 4863 
L 1656 4863 
L 1656 3950 
L 538 3950 
L 538 4863 
z
" transform="scale(0.015625)"/>
      <path id="DejaVuSans-Bold-64" d="M 2919 2988 
L 2919 4863 
L 4044 4863 
L 4044 0 
L 2919 0 
L 2919 506 
Q 2688 197 2409 53 
Q 2131 -91 1766 -91 
Q 1119 -91 703 423 
Q 288 938 288 1747 
Q 288 2556 703 3070 
Q 1119 3584 1766 3584 
Q 2128 3584 2408 3439 
Q 2688 3294 2919 2988 
z
M 2181 722 
Q 2541 722 2730 984 
Q 2919 1247 2919 1747 
Q 2919 2247 2730 2509 
Q 2541 2772 2181 2772 
Q 1825 2772 1636 2509 
Q 1447 2247 1447 1747 
Q 1447 1247 1636 984 
Q 1825 722 2181 722 
z
" transform="scale(0.015625)"/>
      <path id="DejaVuSans-Bold-2d" d="M 347 2297 
L 2309 2297 
L 2309 1388 
L 347 1388 
L 347 2297 
z
" transform="scale(0.015625)"/>
      <path id="DejaVuSans-Bold-50" d="M 588 4666 
L 2584 4666 
Q 3475 4666 3951 4270 
Q 4428 3875 4428 3144 
Q 4428 2409 3951 2014 
Q 3475 1619 2584 1619 
L 1791 1619 
L 1791 0 
L 588 0 
L 588 4666 
z
M 1791 3794 
L 1791 2491 
L 2456 2491 
Q 2806 2491 2997 2661 
Q 3188 2831 3188 3144 
Q 3188 3456 2997 3625 
Q 2806 3794 2456 3794 
L 1791 3794 
z
" transform="scale(0.015625)"/>
      <path id="DejaVuSans-Bold-72" d="M 3138 2547 
Q 2991 2616 2845 2648 
Q 2700 2681 2553 2681 
Q 2122 2681 1889 2404 
Q 1656 2128 1656 1613 
L 1656 0 
L 538 0 
L 538 3500 
L 1656 3500 
L 1656 2925 
Q 1872 3269 2151 3426 
Q 2431 3584 2822 3584 
Q 2878 3584 2943 3579 
Q 3009 3575 3134 3559 
L 3138 2547 
z
" transform="scale(0.015625)"/>
      <path id="DejaVuSans-Bold-6f" d="M 2203 2784 
Q 1831 2784 1636 2517 
Q 1441 2250 1441 1747 
Q 1441 1244 1636 976 
Q 1831 709 2203 709 
Q 2569 709 2762 976 
Q 2956 1244 2956 1747 
Q 2956 2250 2762 2517 
Q 2569 2784 2203 2784 
z
M 2203 3584 
Q 3106 3584 3614 3096 
Q 4122 2609 4122 1747 
Q 4122 884 3614 396 
Q 3106 -91 2203 -91 
Q 1297 -91 786 396 
Q 275 884 275 1747 
Q 275 2609 786 3096 
Q 1297 3584 2203 3584 
z
" transform="scale(0.015625)"/>
      <path id="DejaVuSans-Bold-66" d="M 2841 4863 
L 2841 4128 
L 2222 4128 
Q 1984 4128 1890 4042 
Q 1797 3956 1797 3744 
L 1797 3500 
L 2753 3500 
L 2753 2700 
L 1797 2700 
L 1797 0 
L 678 0 
L 678 2700 
L 122 2700 
L 122 3500 
L 678 3500 
L 678 3744 
Q 678 4316 997 4589 
Q 1316 4863 1984 4863 
L 2841 4863 
z
" transform="scale(0.015625)"/>
      <path id="DejaVuSans-Bold-3a" d="M 716 3500 
L 1844 3500 
L 1844 2291 
L 716 2291 
L 716 3500 
z
M 716 1209 
L 1844 1209 
L 1844 0 
L 716 0 
L 716 1209 
z
" transform="scale(0.015625)"/>
      <path id="DejaVuSans-Bold-20" transform="scale(0.015625)"/>
      <path id="DejaVuSans-Bold-32" d="M 1844 884 
L 3897 884 
L 3897 0 
L 506 0 
L 506 884 
L 2209 2388 
Q 2438 2594 2547 2791 
Q 2656 2988 2656 3200 
Q 2656 3528 2436 3728 
Q 2216 3928 1850 3928 
Q 1569 3928 1234 3808 
Q 900 3688 519 3450 
L 519 4475 
Q 925 4609 1322 4679 
Q 1719 4750 2100 4750 
Q 2938 4750 3402 4381 
Q 3866 4013 3866 3353 
Q 3866 2972 3669 2642 
Q 3472 2313 2841 1759 
L 1844 884 
z
" transform="scale(0.015625)"/>
      <path id="DejaVuSans-Bold-30" d="M 2944 2338 
Q 2944 3213 2780 3570 
Q 2616 3928 2228 3928 
Q 1841 3928 1675 3570 
Q 1509 3213 1509 2338 
Q 1509 1453 1675 1090 
Q 1841 728 2228 728 
Q 2613 728 2778 1090 
Q 2944 1453 2944 2338 
z
M 4147 2328 
Q 4147 1169 3647 539 
Q 3147 -91 2228 -91 
Q 1306 -91 806 539 
Q 306 1169 306 2328 
Q 306 3491 806 4120 
Q 1306 4750 2228 4750 
Q 3147 4750 3647 4120 
Q 4147 3491 4147 2328 
z
" transform="scale(0.015625)"/>
      <path id="DejaVuSans-Bold-31" d="M 750 831 
L 1813 831 
L 1813 3847 
L 722 3622 
L 722 4441 
L 1806 4666 
L 2950 4666 
L 2950 831 
L 4013 831 
L 4013 0 
L 750 0 
L 750 831 
z
" transform="scale(0.015625)"/>
      <path id="DejaVuSans-Bold-76" d="M 97 3500 
L 1216 3500 
L 2088 1081 
L 2956 3500 
L 4078 3500 
L 2700 0 
L 1472 0 
L 97 3500 
z
" transform="scale(0.015625)"/>
      <path id="DejaVuSans-Bold-73" d="M 3272 3391 
L 3272 2541 
Q 2913 2691 2578 2766 
Q 2244 2841 1947 2841 
Q 1628 2841 1473 2761 
Q 1319 2681 1319 2516 
Q 1319 2381 1436 2309 
Q 1553 2238 1856 2203 
L 2053 2175 
Q 2913 2066 3209 1816 
Q 3506 1566 3506 1031 
Q 3506 472 3093 190 
Q 2681 -91 1863 -91 
Q 1516 -91 1145 -36 
Q 775 19 384 128 
L 384 978 
Q 719 816 1070 734 
Q 1422 653 1784 653 
Q 2113 653 2278 743 
Q 2444 834 2444 1013 
Q 2444 1163 2330 1236 
Q 2216 1309 1875 1350 
L 1678 1375 
Q 931 1469 631 1722 
Q 331 1975 331 2491 
Q 331 3047 712 3315 
Q 1094 3584 1881 3584 
Q 2191 3584 2531 3537 
Q 2872 3491 3272 3391 
z
" transform="scale(0.015625)"/>
      <path id="DejaVuSans-Bold-2e" d="M 653 1209 
L 1778 1209 
L 1778 0 
L 653 0 
L 653 1209 
z
" transform="scale(0.015625)"/>
      <path id="DejaVuSans-Bold-39" d="M 641 103 
L 641 966 
Q 928 831 1190 764 
Q 1453 697 1709 697 
Q 2247 697 2547 995 
Q 2847 1294 2900 1881 
Q 2688 1725 2447 1647 
Q 2206 1569 1925 1569 
Q 1209 1569 770 1986 
Q 331 2403 331 3084 
Q 331 3838 820 4291 
Q 1309 4744 2131 4744 
Q 3044 4744 3544 4128 
Q 4044 3513 4044 2388 
Q 4044 1231 3459 570 
Q 2875 -91 1856 -91 
Q 1528 -91 1228 -42 
Q 928 6 641 103 
z
M 2125 2350 
Q 2441 2350 2600 2554 
Q 2759 2759 2759 3169 
Q 2759 3575 2600 3781 
Q 2441 3988 2125 3988 
Q 1809 3988 1650 3781 
Q 1491 3575 1491 3169 
Q 1491 2759 1650 2554 
Q 1809 2350 2125 2350 
z
" transform="scale(0.015625)"/>
      <path id="DejaVuSans-Bold-35" d="M 678 4666 
L 3669 4666 
L 3669 3781 
L 1638 3781 
L 1638 3059 
Q 1775 3097 1914 3117 
Q 2053 3138 2203 3138 
Q 3056 3138 3531 2711 
Q 4006 2284 4006 1522 
Q 4006 766 3489 337 
Q 2972 -91 2053 -91 
Q 1656 -91 1267 -14 
Q 878 63 494 219 
L 494 1166 
Q 875 947 1217 837 
Q 1559 728 1863 728 
Q 2300 728 2551 942 
Q 2803 1156 2803 1522 
Q 2803 1891 2551 2103 
Q 2300 2316 1863 2316 
Q 1603 2316 1309 2248 
Q 1016 2181 678 2041 
L 678 4666 
z
" transform="scale(0.015625)"/>
     </defs>
     <use xlink:href="#DejaVuSans-Bold-57"/>
     <use xlink:href="#DejaVuSans-Bold-65" transform="translate(106.677734 0)"/>
     <use xlink:href="#DejaVuSans-Bold-6c" transform="translate(174.5 0)"/>
     <use xlink:href="#DejaVuSans-Bold-74" transform="translate(208.777344 0)"/>
     <use xlink:href="#DejaVuSans-Bold-62" transform="translate(256.580078 0)"/>
     <use xlink:href="#DejaVuSans-Bold-69" transform="translate(328.162109 0)"/>
     <use xlink:href="#DejaVuSans-Bold-6c" transform="translate(362.439453 0)"/>
     <use xlink:href="#DejaVuSans-Bold-64" transform="translate(396.716797 0)"/>
     <use xlink:href="#DejaVuSans-Bold-2d" transform="translate(468.298828 0)"/>
     <use xlink:href="#DejaVuSans-Bold-50" transform="translate(509.802734 0)"/>
     <use xlink:href="#DejaVuSans-Bold-72" transform="translate(583.09375 0)"/>
     <use xlink:href="#DejaVuSans-Bold-6f" transform="translate(632.410156 0)"/>
     <use xlink:href="#DejaVuSans-Bold-66" transform="translate(701.111328 0)"/>
     <use xlink:href="#DejaVuSans-Bold-69" transform="translate(744.617188 0)"/>
     <use xlink:href="#DejaVuSans-Bold-6c" transform="translate(778.894531 0)"/>
     <use xlink:href="#DejaVuSans-Bold-3a" transform="translate(813.171875 0)"/>
     <use xlink:href="#DejaVuSans-Bold-20" transform="translate(853.162109 0)"/>
     <use xlink:href="#DejaVuSans-Bold-32" transform="translate(887.976562 0)"/>
     <use xlink:href="#DejaVuSans-Bold-30" transform="translate(957.556641 0)"/>
     <use xlink:href="#DejaVuSans-Bold-31" transform="translate(1027.136719 0)"/>
     <use xlink:href="#DejaVuSans-Bold-30" transform="translate(1096.716797 0)"/>
     <use xlink:href="#DejaVuSans-Bold-20" transform="translate(1166.296875 0)"/>
     <use xlink:href="#DejaVuSans-Bold-76" transform="translate(1201.111328 0)"/>
     <use xlink:href="#DejaVuSans-Bold-73" transform="translate(1266.296875 0)"/>
     <use xlink:href="#DejaVuSans-Bold-2e" transform="translate(1325.818359 0)"/>
     <use xlink:href="#DejaVuSans-Bold-20" transform="translate(1363.806641 0)"/>
     <use xlink:href="#DejaVuSans-Bold-32" transform="translate(1398.621094 0)"/>
     <use xlink:href="#DejaVuSans-Bold-30" transform="translate(1468.201172 0)"/>
     <use xlink:href="#DejaVuSans-Bold-31" transform="translate(1537.78125 0)"/>
     <use xlink:href="#DejaVuSans-Bold-39" transform="translate(1607.361328 0)"/>
     <use xlink:href="#DejaVuSans-Bold-20" transform="translate(1676.941406 0)"/>
     <use xlink:href="#DejaVuSans-Bold-76" transform="translate(1711.755859 0)"/>
     <use xlink:href="#DejaVuSans-Bold-73" transform="translate(1776.941406 0)"/>
     <use xlink:href="#DejaVuSans-Bold-2e" transform="translate(1836.462891 0)"/>
     <use xlink:href="#DejaVuSans-Bold-20" transform="translate(1874.451172 0)"/>
     <use xlink:href="#DejaVuSans-Bold-32" transform="translate(1909.265625 0)"/>
     <use xlink:href="#DejaVuSans-Bold-30" transform="translate(1978.845703 0)"/>
     <use xlink:href="#DejaVuSans-Bold-32" transform="translate(2048.425781 0)"/>
     <use xlink:href="#DejaVuSans-Bold-35" transform="translate(2118.005859 0)"/>
    </g>
   </g>
   <g id="legend_1">
    <g id="patch_7">
     <path d="M 485.13695 72.237037 
L 548.33195 72.237037 
Q 550.53195 72.237037 550.53195 70.037037 
L 550.53195 22.699225 
Q 550.53195 20.499225 548.33195 20.499225 
L 485.13695 20.499225 
Q 482.93695 20.499225 482.93695 22.699225 
L 482.93695 70.037037 
Q 482.93695 72.237037 485.13695 72.237037 
z
" style="fill: #ffffff; opacity: 0.8; stroke: #cccccc; stroke-linejoin: miter"/>
    </g>
    <g id="line2d_21">
     <path d="M 487.33695 29.407506 
L 498.33695 29.407506 
L 509.33695 29.407506 
" style="fill: none; stroke: #2196f3; stroke-width: 2; stroke-linecap: square"/>
     <g>
      <use xlink:href="#m7b5138f90b" x="498.33695" y="29.407506" style="fill: #2196f3; stroke: #2196f3"/>
     </g>
    </g>
    <g id="text_19">
     <!-- 2010 -->
     <g transform="translate(518.13695 33.257506) scale(0.11 -0.11)">
      <use xlink:href="#DejaVuSans-32"/>
      <use xlink:href="#DejaVuSans-30" transform="translate(63.623047 0)"/>
      <use xlink:href="#DejaVuSans-31" transform="translate(127.246094 0)"/>
      <use xlink:href="#DejaVuSans-30" transform="translate(190.869141 0)"/>
     </g>
    </g>
    <g id="line2d_22">
     <path d="M 487.33695 45.553444 
L 498.33695 45.553444 
L 509.33695 45.553444 
" style="fill: none; stroke: #f44336; stroke-width: 2; stroke-linecap: square"/>
     <g>
      <use xlink:href="#m573a0c5c84" x="498.33695" y="45.553444" style="fill: #f44336; stroke: #f44336"/>
     </g>
    </g>
    <g id="text_20">
     <!-- 2019 -->
     <g transform="translate(518.13695 49.403444) scale(0.11 -0.11)">
      <use xlink:href="#DejaVuSans-32"/>
      <use xlink:href="#DejaVuSans-30" transform="translate(63.623047 0)"/>
      <use xlink:href="#DejaVuSans-31" transform="translate(127.246094 0)"/>
      <use xlink:href="#DejaVuSans-39" transform="translate(190.869141 0)"/>
     </g>
    </g>
    <g id="line2d_23">
     <path d="M 487.33695 61.699381 
L 498.33695 61.699381 
L 509.33695 61.699381 
" style="fill: none; stroke: #4caf50; stroke-width: 2; stroke-linecap: square"/>
     <g>
      <use xlink:href="#m6a24a4d678" x="498.33695" y="61.699381" style="fill: #4caf50; stroke: #4caf50"/>
     </g>
    </g>
    <g id="text_21">
     <!-- 2025 -->
     <g transform="translate(518.13695 65.549381) scale(0.11 -0.11)">
      <use xlink:href="#DejaVuSans-32"/>
      <use xlink:href="#DejaVuSans-30" transform="translate(63.623047 0)"/>
      <use xlink:href="#DejaVuSans-32" transform="translate(127.246094 0)"/>
      <use xlink:href="#DejaVuSans-35" transform="translate(190.869141 0)"/>
     </g>
    </g>
   </g>
  </g>
 </g>
 <defs>
  <clipPath id="p6582f21c94">
   <path d="M 434.73025 257.602625 
C 434.73025 231.05397 429.500744 204.763466 419.341013 180.235707 
C 409.181283 155.707947 394.288909 133.419935 375.516174 114.647201 
C 356.74344 95.874466 334.455428 80.982092 309.927668 70.822362 
C 285.399909 60.662631 259.109405 55.433125 232.56075 55.433125 
C 206.012095 55.433125 179.721591 60.662631 155.193832 70.822362 
C 130.666072 80.982092 108.37806 95.874466 89.605326 114.647201 
C 70.832591 133.419935 55.940217 155.707947 45.780487 180.235707 
C 35.620756 204.763466 30.39125 231.05397 30.39125 257.602625 
C 30.39125 284.15128 35.620756 310.441784 45.780487 334.969543 
C 55.940217 359.497303 70.832591 381.785315 89.605326 400.558049 
C 108.37806 419.330784 130.666072 434.223158 155.193832 444.382888 
C 179.721591 454.542619 206.012095 459.772125 232.56075 459.772125 
C 259.109405 459.772125 285.399909 454.542619 309.927668 444.382888 
C 334.455428 434.223158 356.74344 419.330784 375.516174 400.558049 
C 394.288909 381.785315 409.181283 359.497303 419.341013 334.969543 
C 429.500744 310.441784 434.73025 284.15128 434.73025 257.602625 
M 232.56075 257.602625 
C 232.56075 257.602625 232.56075 257.602625 232.56075 257.602625 
C 232.56075 257.602625 232.56075 257.602625 232.56075 257.602625 
C 232.56075 257.602625 232.56075 257.602625 232.56075 257.602625 
C 232.56075 257.602625 232.56075 257.602625 232.56075 257.602625 
C 232.56075 257.602625 232.56075 257.602625 232.56075 257.602625 
C 232.56075 257.602625 232.56075 257.602625 232.56075 257.602625 
C 232.56075 257.602625 232.56075 257.602625 232.56075 257.602625 
C 232.56075 257.602625 232.56075 257.602625 232.56075 257.602625 
C 232.56075 257.602625 232.56075 257.602625 232.56075 257.602625 
C 232.56075 257.602625 232.56075 257.602625 232.56075 257.602625 
C 232.56075 257.602625 232.56075 257.602625 232.56075 257.602625 
C 232.56075 257.602625 232.56075 257.602625 232.56075 257.602625 
C 232.56075 257.602625 232.56075 257.602625 232.56075 257.602625 
C 232.56075 257.602625 232.56075 257.602625 232.56075 257.602625 
C 232.56075 257.602625 232.56075 257.602625 232.56075 257.602625 
C 232.56075 257.602625 232.56075 257.602625 232.56075 257.602625 
z
"/>
  </clipPath>
 </defs>
</svg>
