<?xml version="1.0" encoding="utf-8" standalone="no"?>
<!DOCTYPE svg PUBLIC "-//W3C//DTD SVG 1.1//EN"
  "http://www.w3.org/Graphics/SVG/1.1/DTD/svg11.dtd">
<svg xmlns:xlink="http://www.w3.org/1999/xlink" width="854.623437pt" height="420.347581pt" viewBox="0 0 854.623437 420.347581" xmlns="http://www.w3.org/2000/svg" version="1.1">
 <metadata>
  <rdf:RDF xmlns:dc="http://purl.org/dc/elements/1.1/" xmlns:cc="http://creativecommons.org/ns#" xmlns:rdf="http://www.w3.org/1999/02/22-rdf-syntax-ns#">
   <cc:Work>
    <dc:type rdf:resource="http://purl.org/dc/dcmitype/StillImage"/>
    <dc:date>2026-02-12T10:03:40.163326</dc:date>
    <dc:format>image/svg+xml</dc:format>
    <dc:creator>
     <cc:Agent>
      <dc:title>Matplotlib v3.10.6, https://matplotlib.org/</dc:title>
     </cc:Agent>
    </dc:creator>
   </cc:Work>
  </rdf:RDF>
 </metadata>
 <defs>
  <style type="text/css">*{stroke-linejoin: round; stroke-linecap: butt}</style>
 </defs>
 <g id="figure_1">
  <g id="patch_1">
   <path d="M 0 420.347581 
L 854.623437 420.347581 
L 854.623437 0 
L 0 0 
z
" style="fill: #ffffff"/>
  </g>
  <g id="axes_1">
   <g id="patch_2">
    <path d="M 42.843438 380.855706 
L 847.423437 380.855706 
L 847.423437 25.511037 
L 42.843438 25.511037 
z
" style="fill: #ffffff"/>
   </g>
   <g id="matplotlib.axis_1">
    <g id="xtick_1">
     <g id="line2d_1">
      <path d="M 79.415256 380.855706 
L 79.415256 25.511037 
" clip-path="url(#p7731d3ccd1)" style="fill: none; stroke: #b0b0b0; stroke-opacity: 0.3; stroke-width: 0.8; stroke-linecap: square"/>
     </g>
     <g id="line2d_2">
      <defs>
       <path id="m036501c831" d="M 0 0 
L 0 3.5 
" style="stroke: #000000; stroke-width: 0.8"/>
      </defs>
      <g>
       <use xlink:href="#m036501c831" x="79.415256" y="380.855706" style="stroke: #000000; stroke-width: 0.8"/>
      </g>
     </g>
     <g id="text_1">
      <!-- 2010 -->
      <g transform="translate(65.417756 396.213987) scale(0.11 -0.11)">
       <defs>
        <path id="DejaVuSans-32" d="M 1228 531 
L 3431 531 
L 3431 0 
L 469 0 
L 469 531 
Q 828 903 1448 1529 
Q 2069 2156 2228 2338 
Q 2531 2678 2651 2914 
Q 2772 3150 2772 3378 
Q 2772 3750 2511 3984 
Q 2250 4219 1831 4219 
Q 1534 4219 1204 4116 
Q 875 4013 500 3803 
L 500 4441 
Q 881 4594 1212 4672 
Q 1544 4750 1819 4750 
Q 2544 4750 2975 4387 
Q 3406 4025 3406 3419 
Q 3406 3131 3298 2873 
Q 3191 2616 2906 2266 
Q 2828 2175 2409 1742 
Q 1991 1309 1228 531 
z
" transform="scale(0.015625)"/>
        <path id="DejaVuSans-30" d="M 2034 4250 
Q 1547 4250 1301 3770 
Q 1056 3291 1056 2328 
Q 1056 1369 1301 889 
Q 1547 409 2034 409 
Q 2525 409 2770 889 
Q 3016 1369 3016 2328 
Q 3016 3291 2770 3770 
Q 2525 4250 2034 4250 
z
M 2034 4750 
Q 2819 4750 3233 4129 
Q 3647 3509 3647 2328 
Q 3647 1150 3233 529 
Q 2819 -91 2034 -91 
Q 1250 -91 836 529 
Q 422 1150 422 2328 
Q 422 3509 836 4129 
Q 1250 4750 2034 4750 
z
" transform="scale(0.015625)"/>
        <path id="DejaVuSans-31" d="M 794 531 
L 1825 531 
L 1825 4091 
L 703 3866 
L 703 4441 
L 1819 4666 
L 2450 4666 
L 2450 531 
L 3481 531 
L 3481 0 
L 794 0 
L 794 531 
z
" transform="scale(0.015625)"/>
       </defs>
       <use xlink:href="#DejaVuSans-32"/>
       <use xlink:href="#DejaVuSans-30" transform="translate(63.623047 0)"/>
       <use xlink:href="#DejaVuSans-31" transform="translate(127.246094 0)"/>
       <use xlink:href="#DejaVuSans-30" transform="translate(190.869141 0)"/>
      </g>
     </g>
    </g>
    <g id="xtick_2">
     <g id="line2d_3">
      <path d="M 170.844801 380.855706 
L 170.844801 25.511037 
" clip-path="url(#p7731d3ccd1)" style="fill: none; stroke: #b0b0b0; stroke-opacity: 0.3; stroke-width: 0.8; stroke-linecap: square"/>
     </g>
     <g id="line2d_4">
      <g>
       <use xlink:href="#m036501c831" x="170.844801" y="380.855706" style="stroke: #000000; stroke-width: 0.8"/>
      </g>
     </g>
     <g id="text_2">
      <!-- 2012 -->
      <g transform="translate(156.847301 396.213987) scale(0.11 -0.11)">
       <use xlink:href="#DejaVuSans-32"/>
       <use xlink:href="#DejaVuSans-30" transform="translate(63.623047 0)"/>
       <use xlink:href="#DejaVuSans-31" transform="translate(127.246094 0)"/>
       <use xlink:href="#DejaVuSans-32" transform="translate(190.869141 0)"/>
      </g>
     </g>
    </g>
    <g id="xtick_3">
     <g id="line2d_5">
      <path d="M 262.274347 380.855706 
L 262.274347 25.511037 
" clip-path="url(#p7731d3ccd1)" style="fill: none; stroke: #b0b0b0; stroke-opacity: 0.3; stroke-width: 0.8; stroke-linecap: square"/>
     </g>
     <g id="line2d_6">
      <g>
       <use xlink:href="#m036501c831" x="262.274347" y="380.855706" style="stroke: #000000; stroke-width: 0.8"/>
      </g>
     </g>
     <g id="text_3">
      <!-- 2014 -->
      <g transform="translate(248.276847 396.213987) scale(0.11 -0.11)">
       <defs>
        <path id="DejaVuSans-34" d="M 2419 4116 
L 825 1625 
L 2419 1625 
L 2419 4116 
z
M 2253 4666 
L 3047 4666 
L 3047 1625 
L 3713 1625 
L 3713 1100 
L 3047 1100 
L 3047 0 
L 2419 0 
L 2419 1100 
L 313 1100 
L 313 1709 
L 2253 4666 
z
" transform="scale(0.015625)"/>
       </defs>
       <use xlink:href="#DejaVuSans-32"/>
       <use xlink:href="#DejaVuSans-30" transform="translate(63.623047 0)"/>
       <use xlink:href="#DejaVuSans-31" transform="translate(127.246094 0)"/>
       <use xlink:href="#DejaVuSans-34" transform="translate(190.869141 0)"/>
      </g>
     </g>
    </g>
    <g id="xtick_4">
     <g id="line2d_7">
      <path d="M 353.703892 380.855706 
L 353.703892 25.511037 
" clip-path="url(#p7731d3ccd1)" style="fill: none; stroke: #b0b0b0; stroke-opacity: 0.3; stroke-width: 0.8; stroke-linecap: square"/>
     </g>
     <g id="line2d_8">
      <g>
       <use xlink:href="#m036501c831" x="353.703892" y="380.855706" style="stroke: #000000; stroke-width: 0.8"/>
      </g>
     </g>
     <g id="text_4">
      <!-- 2016 -->
      <g transform="translate(339.706392 396.213987) scale(0.11 -0.11)">
       <defs>
        <path id="DejaVuSans-36" d="M 2113 2584 
Q 1688 2584 1439 2293 
Q 1191 2003 1191 1497 
Q 1191 994 1439 701 
Q 1688 409 2113 409 
Q 2538 409 2786 701 
Q 3034 994 3034 1497 
Q 3034 2003 2786 2293 
Q 2538 2584 2113 2584 
z
M 3366 4563 
L 3366 3988 
Q 3128 4100 2886 4159 
Q 2644 4219 2406 4219 
Q 1781 4219 1451 3797 
Q 1122 3375 1075 2522 
Q 1259 2794 1537 2939 
Q 1816 3084 2150 3084 
Q 2853 3084 3261 2657 
Q 3669 2231 3669 1497 
Q 3669 778 3244 343 
Q 2819 -91 2113 -91 
Q 1303 -91 875 529 
Q 447 1150 447 2328 
Q 447 3434 972 4092 
Q 1497 4750 2381 4750 
Q 2619 4750 2861 4703 
Q 3103 4656 3366 4563 
z
" transform="scale(0.015625)"/>
       </defs>
       <use xlink:href="#DejaVuSans-32"/>
       <use xlink:href="#DejaVuSans-30" transform="translate(63.623047 0)"/>
       <use xlink:href="#DejaVuSans-31" transform="translate(127.246094 0)"/>
       <use xlink:href="#DejaVuSans-36" transform="translate(190.869141 0)"/>
      </g>
     </g>
    </g>
    <g id="xtick_5">
     <g id="line2d_9">
      <path d="M 445.133438 380.855706 
L 445.133438 25.511037 
" clip-path="url(#p7731d3ccd1)" style="fill: none; stroke: #b0b0b0; stroke-opacity: 0.3; stroke-width: 0.8; stroke-linecap: square"/>
     </g>
     <g id="line2d_10">
      <g>
       <use xlink:href="#m036501c831" x="445.133438" y="380.855706" style="stroke: #000000; stroke-width: 0.8"/>
      </g>
     </g>
     <g id="text_5">
      <!-- 2018 -->
      <g transform="translate(431.135938 396.213987) scale(0.11 -0.11)">
       <defs>
        <path id="DejaVuSans-38" d="M 2034 2216 
Q 1584 2216 1326 1975 
Q 1069 1734 1069 1313 
Q 1069 891 1326 650 
Q 1584 409 2034 409 
Q 2484 409 2743 651 
Q 3003 894 3003 1313 
Q 3003 1734 2745 1975 
Q 2488 2216 2034 2216 
z
M 1403 2484 
Q 997 2584 770 2862 
Q 544 3141 544 3541 
Q 544 4100 942 4425 
Q 1341 4750 2034 4750 
Q 2731 4750 3128 4425 
Q 3525 4100 3525 3541 
Q 3525 3141 3298 2862 
Q 3072 2584 2669 2484 
Q 3125 2378 3379 2068 
Q 3634 1759 3634 1313 
Q 3634 634 3220 271 
Q 2806 -91 2034 -91 
Q 1263 -91 848 271 
Q 434 634 434 1313 
Q 434 1759 690 2068 
Q 947 2378 1403 2484 
z
M 1172 3481 
Q 1172 3119 1398 2916 
Q 1625 2713 2034 2713 
Q 2441 2713 2670 2916 
Q 2900 3119 2900 3481 
Q 2900 3844 2670 4047 
Q 2441 4250 2034 4250 
Q 1625 4250 1398 4047 
Q 1172 3844 1172 3481 
z
" transform="scale(0.015625)"/>
       </defs>
       <use xlink:href="#DejaVuSans-32"/>
       <use xlink:href="#DejaVuSans-30" transform="translate(63.623047 0)"/>
       <use xlink:href="#DejaVuSans-31" transform="translate(127.246094 0)"/>
       <use xlink:href="#DejaVuSans-38" transform="translate(190.869141 0)"/>
      </g>
     </g>
    </g>
    <g id="xtick_6">
     <g id="line2d_11">
      <path d="M 536.562983 380.855706 
L 536.562983 25.511037 
" clip-path="url(#p7731d3ccd1)" style="fill: none; stroke: #b0b0b0; stroke-opacity: 0.3; stroke-width: 0.8; stroke-linecap: square"/>
     </g>
     <g id="line2d_12">
      <g>
       <use xlink:href="#m036501c831" x="536.562983" y="380.855706" style="stroke: #000000; stroke-width: 0.8"/>
      </g>
     </g>
     <g id="text_6">
      <!-- 2020 -->
      <g transform="translate(522.565483 396.213987) scale(0.11 -0.11)">
       <use xlink:href="#DejaVuSans-32"/>
       <use xlink:href="#DejaVuSans-30" transform="translate(63.623047 0)"/>
       <use xlink:href="#DejaVuSans-32" transform="translate(127.246094 0)"/>
       <use xlink:href="#DejaVuSans-30" transform="translate(190.869141 0)"/>
      </g>
     </g>
    </g>
    <g id="xtick_7">
     <g id="line2d_13">
      <path d="M 627.992528 380.855706 
L 627.992528 25.511037 
" clip-path="url(#p7731d3ccd1)" style="fill: none; stroke: #b0b0b0; stroke-opacity: 0.3; stroke-width: 0.8; stroke-linecap: square"/>
     </g>
     <g id="line2d_14">
      <g>
       <use xlink:href="#m036501c831" x="627.992528" y="380.855706" style="stroke: #000000; stroke-width: 0.8"/>
      </g>
     </g>
     <g id="text_7">
      <!-- 2022 -->
      <g transform="translate(613.995028 396.213987) scale(0.11 -0.11)">
       <use xlink:href="#DejaVuSans-32"/>
       <use xlink:href="#DejaVuSans-30" transform="translate(63.623047 0)"/>
       <use xlink:href="#DejaVuSans-32" transform="translate(127.246094 0)"/>
       <use xlink:href="#DejaVuSans-32" transform="translate(190.869141 0)"/>
      </g>
     </g>
    </g>
    <g id="xtick_8">
     <g id="line2d_15">
      <path d="M 719.422074 380.855706 
L 719.422074 25.511037 
" clip-path="url(#p7731d3ccd1)" style="fill: none; stroke: #b0b0b0; stroke-opacity: 0.3; stroke-width: 0.8; stroke-linecap: square"/>
     </g>
     <g id="line2d_16">
      <g>
       <use xlink:href="#m036501c831" x="719.422074" y="380.855706" style="stroke: #000000; stroke-width: 0.8"/>
      </g>
     </g>
     <g id="text_8">
      <!-- 2024 -->
      <g transform="translate(705.424574 396.213987) scale(0.11 -0.11)">
       <use xlink:href="#DejaVuSans-32"/>
       <use xlink:href="#DejaVuSans-30" transform="translate(63.623047 0)"/>
       <use xlink:href="#DejaVuSans-32" transform="translate(127.246094 0)"/>
       <use xlink:href="#DejaVuSans-34" transform="translate(190.869141 0)"/>
      </g>
     </g>
    </g>
    <g id="xtick_9">
     <g id="line2d_17">
      <path d="M 810.851619 380.855706 
L 810.851619 25.511037 
" clip-path="url(#p7731d3ccd1)" style="fill: none; stroke: #b0b0b0; stroke-opacity: 0.3; stroke-width: 0.8; stroke-linecap: square"/>
     </g>
     <g id="line2d_18">
      <g>
       <use xlink:href="#m036501c831" x="810.851619" y="380.855706" style="stroke: #000000; stroke-width: 0.8"/>
      </g>
     </g>
     <g id="text_9">
      <!-- 2026 -->
      <g transform="translate(796.854119 396.213987) scale(0.11 -0.11)">
       <use xlink:href="#DejaVuSans-32"/>
       <use xlink:href="#DejaVuSans-30" transform="translate(63.623047 0)"/>
       <use xlink:href="#DejaVuSans-32" transform="translate(127.246094 0)"/>
       <use xlink:href="#DejaVuSans-36" transform="translate(190.869141 0)"/>
      </g>
     </g>
    </g>
    <g id="text_10">
     <!-- Jahr -->
     <g transform="translate(434.393828 410.859924) scale(0.11 -0.11)">
      <defs>
       <path id="DejaVuSans-4a" d="M 628 4666 
L 1259 4666 
L 1259 325 
Q 1259 -519 939 -900 
Q 619 -1281 -91 -1281 
L -331 -1281 
L -331 -750 
L -134 -750 
Q 284 -750 456 -515 
Q 628 -281 628 325 
L 628 4666 
z
" transform="scale(0.015625)"/>
       <path id="DejaVuSans-61" d="M 2194 1759 
Q 1497 1759 1228 1600 
Q 959 1441 959 1056 
Q 959 750 1161 570 
Q 1363 391 1709 391 
Q 2188 391 2477 730 
Q 2766 1069 2766 1631 
L 2766 1759 
L 2194 1759 
z
M 3341 1997 
L 3341 0 
L 2766 0 
L 2766 531 
Q 2569 213 2275 61 
Q 1981 -91 1556 -91 
Q 1019 -91 701 211 
Q 384 513 384 1019 
Q 384 1609 779 1909 
Q 1175 2209 1959 2209 
L 2766 2209 
L 2766 2266 
Q 2766 2663 2505 2880 
Q 2244 3097 1772 3097 
Q 1472 3097 1187 3025 
Q 903 2953 641 2809 
L 641 3341 
Q 956 3463 1253 3523 
Q 1550 3584 1831 3584 
Q 2591 3584 2966 3190 
Q 3341 2797 3341 1997 
z
" transform="scale(0.015625)"/>
       <path id="DejaVuSans-68" d="M 3513 2113 
L 3513 0 
L 2938 0 
L 2938 2094 
Q 2938 2591 2744 2837 
Q 2550 3084 2163 3084 
Q 1697 3084 1428 2787 
Q 1159 2491 1159 1978 
L 1159 0 
L 581 0 
L 581 4863 
L 1159 4863 
L 1159 2956 
Q 1366 3272 1645 3428 
Q 1925 3584 2291 3584 
Q 2894 3584 3203 3211 
Q 3513 2838 3513 2113 
z
" transform="scale(0.015625)"/>
       <path id="DejaVuSans-72" d="M 2631 2963 
Q 2534 3019 2420 3045 
Q 2306 3072 2169 3072 
Q 1681 3072 1420 2755 
Q 1159 2438 1159 1844 
L 1159 0 
L 581 0 
L 581 3500 
L 1159 3500 
L 1159 2956 
Q 1341 3275 1631 3429 
Q 1922 3584 2338 3584 
Q 2397 3584 2469 3576 
Q 2541 3569 2628 3553 
L 2631 2963 
z
" transform="scale(0.015625)"/>
      </defs>
      <use xlink:href="#DejaVuSans-4a"/>
      <use xlink:href="#DejaVuSans-61" transform="translate(29.492188 0)"/>
      <use xlink:href="#DejaVuSans-68" transform="translate(90.771484 0)"/>
      <use xlink:href="#DejaVuSans-72" transform="translate(154.150391 0)"/>
     </g>
    </g>
   </g>
   <g id="matplotlib.axis_2">
    <g id="ytick_1">
     <g id="line2d_19">
      <path d="M 42.843438 330.092181 
L 847.423437 330.092181 
" clip-path="url(#p7731d3ccd1)" style="fill: none; stroke: #b0b0b0; stroke-opacity: 0.3; stroke-width: 0.8; stroke-linecap: square"/>
     </g>
     <g id="line2d_20">
      <defs>
       <path id="ma58a480973" d="M 0 0 
L -3.5 0 
" style="stroke: #000000; stroke-width: 0.8"/>
      </defs>
      <g>
       <use xlink:href="#ma58a480973" x="42.843438" y="330.092181" style="stroke: #000000; stroke-width: 0.8"/>
      </g>
     </g>
     <g id="text_11">
      <!-- 2 -->
      <g transform="translate(28.844688 334.271322) scale(0.11 -0.11)">
       <use xlink:href="#DejaVuSans-32"/>
      </g>
     </g>
    </g>
    <g id="ytick_2">
     <g id="line2d_21">
      <path d="M 42.843438 262.407483 
L 847.423437 262.407483 
" clip-path="url(#p7731d3ccd1)" style="fill: none; stroke: #b0b0b0; stroke-opacity: 0.3; stroke-width: 0.8; stroke-linecap: square"/>
     </g>
     <g id="line2d_22">
      <g>
       <use xlink:href="#ma58a480973" x="42.843438" y="262.407483" style="stroke: #000000; stroke-width: 0.8"/>
      </g>
     </g>
     <g id="text_12">
      <!-- 4 -->
      <g transform="translate(28.844688 266.586623) scale(0.11 -0.11)">
       <use xlink:href="#DejaVuSans-34"/>
      </g>
     </g>
    </g>
    <g id="ytick_3">
     <g id="line2d_23">
      <path d="M 42.843438 194.722784 
L 847.423437 194.722784 
" clip-path="url(#p7731d3ccd1)" style="fill: none; stroke: #b0b0b0; stroke-opacity: 0.3; stroke-width: 0.8; stroke-linecap: square"/>
     </g>
     <g id="line2d_24">
      <g>
       <use xlink:href="#ma58a480973" x="42.843438" y="194.722784" style="stroke: #000000; stroke-width: 0.8"/>
      </g>
     </g>
     <g id="text_13">
      <!-- 6 -->
      <g transform="translate(28.844688 198.901924) scale(0.11 -0.11)">
       <use xlink:href="#DejaVuSans-36"/>
      </g>
     </g>
    </g>
    <g id="ytick_4">
     <g id="line2d_25">
      <path d="M 42.843438 127.038085 
L 847.423437 127.038085 
" clip-path="url(#p7731d3ccd1)" style="fill: none; stroke: #b0b0b0; stroke-opacity: 0.3; stroke-width: 0.8; stroke-linecap: square"/>
     </g>
     <g id="line2d_26">
      <g>
       <use xlink:href="#ma58a480973" x="42.843438" y="127.038085" style="stroke: #000000; stroke-width: 0.8"/>
      </g>
     </g>
     <g id="text_14">
      <!-- 8 -->
      <g transform="translate(28.844688 131.217226) scale(0.11 -0.11)">
       <use xlink:href="#DejaVuSans-38"/>
      </g>
     </g>
    </g>
    <g id="ytick_5">
     <g id="line2d_27">
      <path d="M 42.843438 59.353386 
L 847.423437 59.353386 
" clip-path="url(#p7731d3ccd1)" style="fill: none; stroke: #b0b0b0; stroke-opacity: 0.3; stroke-width: 0.8; stroke-linecap: square"/>
     </g>
     <g id="line2d_28">
      <g>
       <use xlink:href="#ma58a480973" x="42.843438" y="59.353386" style="stroke: #000000; stroke-width: 0.8"/>
      </g>
     </g>
     <g id="text_15">
      <!-- 10 -->
      <g transform="translate(21.845938 63.532527) scale(0.11 -0.11)">
       <use xlink:href="#DejaVuSans-31"/>
       <use xlink:href="#DejaVuSans-30" transform="translate(63.623047 0)"/>
      </g>
     </g>
    </g>
    <g id="text_16">
     <!-- Wert (1-10) -->
     <g transform="translate(15.558281 234.621887) rotate(-90) scale(0.11 -0.11)">
      <defs>
       <path id="DejaVuSans-57" d="M 213 4666 
L 850 4666 
L 1831 722 
L 2809 4666 
L 3519 4666 
L 4500 722 
L 5478 4666 
L 6119 4666 
L 4947 0 
L 4153 0 
L 3169 4050 
L 2175 0 
L 1381 0 
L 213 4666 
z
" transform="scale(0.015625)"/>
       <path id="DejaVuSans-65" d="M 3597 1894 
L 3597 1613 
L 953 1613 
Q 991 1019 1311 708 
Q 1631 397 2203 397 
Q 2534 397 2845 478 
Q 3156 559 3463 722 
L 3463 178 
Q 3153 47 2828 -22 
Q 2503 -91 2169 -91 
Q 1331 -91 842 396 
Q 353 884 353 1716 
Q 353 2575 817 3079 
Q 1281 3584 2069 3584 
Q 2775 3584 3186 3129 
Q 3597 2675 3597 1894 
z
M 3022 2063 
Q 3016 2534 2758 2815 
Q 2500 3097 2075 3097 
Q 1594 3097 1305 2825 
Q 1016 2553 972 2059 
L 3022 2063 
z
" transform="scale(0.015625)"/>
       <path id="DejaVuSans-74" d="M 1172 4494 
L 1172 3500 
L 2356 3500 
L 2356 3053 
L 1172 3053 
L 1172 1153 
Q 1172 725 1289 603 
Q 1406 481 1766 481 
L 2356 481 
L 2356 0 
L 1766 0 
Q 1100 0 847 248 
Q 594 497 594 1153 
L 594 3053 
L 172 3053 
L 172 3500 
L 594 3500 
L 594 4494 
L 1172 4494 
z
" transform="scale(0.015625)"/>
       <path id="DejaVuSans-20" transform="scale(0.015625)"/>
       <path id="DejaVuSans-28" d="M 1984 4856 
Q 1566 4138 1362 3434 
Q 1159 2731 1159 2009 
Q 1159 1288 1364 580 
Q 1569 -128 1984 -844 
L 1484 -844 
Q 1016 -109 783 600 
Q 550 1309 550 2009 
Q 550 2706 781 3412 
Q 1013 4119 1484 4856 
L 1984 4856 
z
" transform="scale(0.015625)"/>
       <path id="DejaVuSans-2d" d="M 313 2009 
L 1997 2009 
L 1997 1497 
L 313 1497 
L 313 2009 
z
" transform="scale(0.015625)"/>
       <path id="DejaVuSans-29" d="M 513 4856 
L 1013 4856 
Q 1481 4119 1714 3412 
Q 1947 2706 1947 2009 
Q 1947 1309 1714 600 
Q 1481 -109 1013 -844 
L 513 -844 
Q 928 -128 1133 580 
Q 1338 1288 1338 2009 
Q 1338 2731 1133 3434 
Q 928 4138 513 4856 
z
" transform="scale(0.015625)"/>
      </defs>
      <use xlink:href="#DejaVuSans-57"/>
      <use xlink:href="#DejaVuSans-65" transform="translate(93.001953 0)"/>
      <use xlink:href="#DejaVuSans-72" transform="translate(154.525391 0)"/>
      <use xlink:href="#DejaVuSans-74" transform="translate(195.638672 0)"/>
      <use xlink:href="#DejaVuSans-20" transform="translate(234.847656 0)"/>
      <use xlink:href="#DejaVuSans-28" transform="translate(266.634766 0)"/>
      <use xlink:href="#DejaVuSans-31" transform="translate(305.648438 0)"/>
      <use xlink:href="#DejaVuSans-2d" transform="translate(369.271484 0)"/>
      <use xlink:href="#DejaVuSans-31" transform="translate(405.355469 0)"/>
      <use xlink:href="#DejaVuSans-30" transform="translate(468.978516 0)"/>
      <use xlink:href="#DejaVuSans-29" transform="translate(532.601562 0)"/>
     </g>
    </g>
   </g>
   <g id="line2d_29">
    <path d="M 79.415256 59.353386 
L 125.130028 127.038085 
L 170.844801 93.195736 
L 216.559574 93.195736 
L 262.274347 127.038085 
L 307.989119 93.195736 
L 353.703892 59.353386 
L 399.418665 160.880434 
L 445.133438 160.880434 
L 490.84821 194.722784 
L 536.562983 194.722784 
L 582.277756 160.880434 
L 627.992528 127.038085 
L 673.707301 228.565133 
L 719.422074 194.722784 
L 765.136847 194.722784 
L 810.851619 194.722784 
" clip-path="url(#p7731d3ccd1)" style="fill: none; stroke: #9c27b0; stroke-width: 2; stroke-linecap: square"/>
    <defs>
     <path id="m432158872b" d="M 0 2.5 
C 0.663008 2.5 1.29895 2.236584 1.767767 1.767767 
C 2.236584 1.29895 2.5 0.663008 2.5 0 
C 2.5 -0.663008 2.236584 -1.29895 1.767767 -1.767767 
C 1.29895 -2.236584 0.663008 -2.5 0 -2.5 
C -0.663008 -2.5 -1.29895 -2.236584 -1.767767 -1.767767 
C -2.236584 -1.29895 -2.5 -0.663008 -2.5 0 
C -2.5 0.663008 -2.236584 1.29895 -1.767767 1.767767 
C -1.29895 2.236584 -0.663008 2.5 0 2.5 
z
" style="stroke: #9c27b0"/>
    </defs>
    <g clip-path="url(#p7731d3ccd1)">
     <use xlink:href="#m432158872b" x="79.415256" y="59.353386" style="fill: #9c27b0; stroke: #9c27b0"/>
     <use xlink:href="#m432158872b" x="125.130028" y="127.038085" style="fill: #9c27b0; stroke: #9c27b0"/>
     <use xlink:href="#m432158872b" x="170.844801" y="93.195736" style="fill: #9c27b0; stroke: #9c27b0"/>
     <use xlink:href="#m432158872b" x="216.559574" y="93.195736" style="fill: #9c27b0; stroke: #9c27b0"/>
     <use xlink:href="#m432158872b" x="262.274347" y="127.038085" style="fill: #9c27b0; stroke: #9c27b0"/>
     <use xlink:href="#m432158872b" x="307.989119" y="93.195736" style="fill: #9c27b0; stroke: #9c27b0"/>
     <use xlink:href="#m432158872b" x="353.703892" y="59.353386" style="fill: #9c27b0; stroke: #9c27b0"/>
     <use xlink:href="#m432158872b" x="399.418665" y="160.880434" style="fill: #9c27b0; stroke: #9c27b0"/>
     <use xlink:href="#m432158872b" x="445.133438" y="160.880434" style="fill: #9c27b0; stroke: #9c27b0"/>
     <use xlink:href="#m432158872b" x="490.84821" y="194.722784" style="fill: #9c27b0; stroke: #9c27b0"/>
     <use xlink:href="#m432158872b" x="536.562983" y="194.722784" style="fill: #9c27b0; stroke: #9c27b0"/>
     <use xlink:href="#m432158872b" x="582.277756" y="160.880434" style="fill: #9c27b0; stroke: #9c27b0"/>
     <use xlink:href="#m432158872b" x="627.992528" y="127.038085" style="fill: #9c27b0; stroke: #9c27b0"/>
     <use xlink:href="#m432158872b" x="673.707301" y="228.565133" style="fill: #9c27b0; stroke: #9c27b0"/>
     <use xlink:href="#m432158872b" x="719.422074" y="194.722784" style="fill: #9c27b0; stroke: #9c27b0"/>
     <use xlink:href="#m432158872b" x="765.136847" y="194.722784" style="fill: #9c27b0; stroke: #9c27b0"/>
     <use xlink:href="#m432158872b" x="810.851619" y="194.722784" style="fill: #9c27b0; stroke: #9c27b0"/>
    </g>
   </g>
   <g id="line2d_30">
    <path d="M 79.415256 296.249832 
L 125.130028 330.092181 
L 170.844801 330.092181 
L 216.559574 262.407483 
L 262.274347 330.092181 
L 307.989119 296.249832 
L 353.703892 330.092181 
L 399.418665 194.722784 
L 445.133438 228.565133 
L 490.84821 194.722784 
L 536.562983 160.880434 
L 582.277756 194.722784 
L 627.992528 228.565133 
L 673.707301 262.407483 
L 719.422074 296.249832 
L 765.136847 296.249832 
L 810.851619 262.407483 
" clip-path="url(#p7731d3ccd1)" style="fill: none; stroke: #f44336; stroke-width: 2; stroke-linecap: square"/>
    <defs>
     <path id="m3609ad145d" d="M 0 2.5 
C 0.663008 2.5 1.29895 2.236584 1.767767 1.767767 
C 2.236584 1.29895 2.5 0.663008 2.5 0 
C 2.5 -0.663008 2.236584 -1.29895 1.767767 -1.767767 
C 1.29895 -2.236584 0.663008 -2.5 0 -2.5 
C -0.663008 -2.5 -1.29895 -2.236584 -1.767767 -1.767767 
C -2.236584 -1.29895 -2.5 -0.663008 -2.5 0 
C -2.5 0.663008 -2.236584 1.29895 -1.767767 1.767767 
C -1.29895 2.236584 -0.663008 2.5 0 2.5 
z
" style="stroke: #f44336"/>
    </defs>
    <g clip-path="url(#p7731d3ccd1)">
     <use xlink:href="#m3609ad145d" x="79.415256" y="296.249832" style="fill: #f44336; stroke: #f44336"/>
     <use xlink:href="#m3609ad145d" x="125.130028" y="330.092181" style="fill: #f44336; stroke: #f44336"/>
     <use xlink:href="#m3609ad145d" x="170.844801" y="330.092181" style="fill: #f44336; stroke: #f44336"/>
     <use xlink:href="#m3609ad145d" x="216.559574" y="262.407483" style="fill: #f44336; stroke: #f44336"/>
     <use xlink:href="#m3609ad145d" x="262.274347" y="330.092181" style="fill: #f44336; stroke: #f44336"/>
     <use xlink:href="#m3609ad145d" x="307.989119" y="296.249832" style="fill: #f44336; stroke: #f44336"/>
     <use xlink:href="#m3609ad145d" x="353.703892" y="330.092181" style="fill: #f44336; stroke: #f44336"/>
     <use xlink:href="#m3609ad145d" x="399.418665" y="194.722784" style="fill: #f44336; stroke: #f44336"/>
     <use xlink:href="#m3609ad145d" x="445.133438" y="228.565133" style="fill: #f44336; stroke: #f44336"/>
     <use xlink:href="#m3609ad145d" x="490.84821" y="194.722784" style="fill: #f44336; stroke: #f44336"/>
     <use xlink:href="#m3609ad145d" x="536.562983" y="160.880434" style="fill: #f44336; stroke: #f44336"/>
     <use xlink:href="#m3609ad145d" x="582.277756" y="194.722784" style="fill: #f44336; stroke: #f44336"/>
     <use xlink:href="#m3609ad145d" x="627.992528" y="228.565133" style="fill: #f44336; stroke: #f44336"/>
     <use xlink:href="#m3609ad145d" x="673.707301" y="262.407483" style="fill: #f44336; stroke: #f44336"/>
     <use xlink:href="#m3609ad145d" x="719.422074" y="296.249832" style="fill: #f44336; stroke: #f44336"/>
     <use xlink:href="#m3609ad145d" x="765.136847" y="296.249832" style="fill: #f44336; stroke: #f44336"/>
     <use xlink:href="#m3609ad145d" x="810.851619" y="262.407483" style="fill: #f44336; stroke: #f44336"/>
    </g>
   </g>
   <g id="line2d_31">
    <path d="M 79.415256 93.195736 
L 125.130028 127.038085 
L 170.844801 93.195736 
L 216.559574 93.195736 
L 262.274347 127.038085 
L 307.989119 93.195736 
L 353.703892 59.353386 
L 399.418665 93.195736 
L 445.133438 127.038085 
L 490.84821 127.038085 
L 536.562983 93.195736 
L 582.277756 93.195736 
L 627.992528 59.353386 
L 673.707301 93.195736 
L 719.422074 93.195736 
L 765.136847 59.353386 
L 810.851619 59.353386 
" clip-path="url(#p7731d3ccd1)" style="fill: none; stroke: #ff9800; stroke-width: 2; stroke-linecap: square"/>
    <defs>
     <path id="m5866cf3df4" d="M 0 2.5 
C 0.663008 2.5 1.29895 2.236584 1.767767 1.767767 
C 2.236584 1.29895 2.5 0.663008 2.5 0 
C 2.5 -0.663008 2.236584 -1.29895 1.767767 -1.767767 
C 1.29895 -2.236584 0.663008 -2.5 0 -2.5 
C -0.663008 -2.5 -1.29895 -2.236584 -1.767767 -1.767767 
C -2.236584 -1.29895 -2.5 -0.663008 -2.5 0 
C -2.5 0.663008 -2.236584 1.29895 -1.767767 1.767767 
C -1.29895 2.236584 -0.663008 2.5 0 2.5 
z
" style="stroke: #ff9800"/>
    </defs>
    <g clip-path="url(#p7731d3ccd1)">
     <use xlink:href="#m5866cf3df4" x="79.415256" y="93.195736" style="fill: #ff9800; stroke: #ff9800"/>
     <use xlink:href="#m5866cf3df4" x="125.130028" y="127.038085" style="fill: #ff9800; stroke: #ff9800"/>
     <use xlink:href="#m5866cf3df4" x="170.844801" y="93.195736" style="fill: #ff9800; stroke: #ff9800"/>
     <use xlink:href="#m5866cf3df4" x="216.559574" y="93.195736" style="fill: #ff9800; stroke: #ff9800"/>
     <use xlink:href="#m5866cf3df4" x="262.274347" y="127.038085" style="fill: #ff9800; stroke: #ff9800"/>
     <use xlink:href="#m5866cf3df4" x="307.989119" y="93.195736" style="fill: #ff9800; stroke: #ff9800"/>
     <use xlink:href="#m5866cf3df4" x="353.703892" y="59.353386" style="fill: #ff9800; stroke: #ff9800"/>
     <use xlink:href="#m5866cf3df4" x="399.418665" y="93.195736" style="fill: #ff9800; stroke: #ff9800"/>
     <use xlink:href="#m5866cf3df4" x="445.133438" y="127.038085" style="fill: #ff9800; stroke: #ff9800"/>
     <use xlink:href="#m5866cf3df4" x="490.84821" y="127.038085" style="fill: #ff9800; stroke: #ff9800"/>
     <use xlink:href="#m5866cf3df4" x="536.562983" y="93.195736" style="fill: #ff9800; stroke: #ff9800"/>
     <use xlink:href="#m5866cf3df4" x="582.277756" y="93.195736" style="fill: #ff9800; stroke: #ff9800"/>
     <use xlink:href="#m5866cf3df4" x="627.992528" y="59.353386" style="fill: #ff9800; stroke: #ff9800"/>
     <use xlink:href="#m5866cf3df4" x="673.707301" y="93.195736" style="fill: #ff9800; stroke: #ff9800"/>
     <use xlink:href="#m5866cf3df4" x="719.422074" y="93.195736" style="fill: #ff9800; stroke: #ff9800"/>
     <use xlink:href="#m5866cf3df4" x="765.136847" y="59.353386" style="fill: #ff9800; stroke: #ff9800"/>
     <use xlink:href="#m5866cf3df4" x="810.851619" y="59.353386" style="fill: #ff9800; stroke: #ff9800"/>
    </g>
   </g>
   <g id="line2d_32">
    <path d="M 79.415256 93.195736 
L 125.130028 127.038085 
L 170.844801 93.195736 
L 216.559574 127.038085 
L 262.274347 127.038085 
L 307.989119 127.038085 
L 353.703892 93.195736 
L 399.418665 127.038085 
L 445.133438 160.880434 
L 490.84821 194.722784 
L 536.562983 160.880434 
L 582.277756 127.038085 
L 627.992528 93.195736 
L 673.707301 127.038085 
L 719.422074 93.195736 
L 765.136847 93.195736 
L 810.851619 93.195736 
" clip-path="url(#p7731d3ccd1)" style="fill: none; stroke: #2196f3; stroke-width: 2; stroke-linecap: square"/>
    <defs>
     <path id="m721cfaa235" d="M 0 2.5 
C 0.663008 2.5 1.29895 2.236584 1.767767 1.767767 
C 2.236584 1.29895 2.5 0.663008 2.5 0 
C 2.5 -0.663008 2.236584 -1.29895 1.767767 -1.767767 
C 1.29895 -2.236584 0.663008 -2.5 0 -2.5 
C -0.663008 -2.5 -1.29895 -2.236584 -1.767767 -1.767767 
C -2.236584 -1.29895 -2.5 -0.663008 -2.5 0 
C -2.5 0.663008 -2.236584 1.29895 -1.767767 1.767767 
C -1.29895 2.236584 -0.663008 2.5 0 2.5 
z
" style="stroke: #2196f3"/>
    </defs>
    <g clip-path="url(#p7731d3ccd1)">
     <use xlink:href="#m721cfaa235" x="79.415256" y="93.195736" style="fill: #2196f3; stroke: #2196f3"/>
     <use xlink:href="#m721cfaa235" x="125.130028" y="127.038085" style="fill: #2196f3; stroke: #2196f3"/>
     <use xlink:href="#m721cfaa235" x="170.844801" y="93.195736" style="fill: #2196f3; stroke: #2196f3"/>
     <use xlink:href="#m721cfaa235" x="216.559574" y="127.038085" style="fill: #2196f3; stroke: #2196f3"/>
     <use xlink:href="#m721cfaa235" x="262.274347" y="127.038085" style="fill: #2196f3; stroke: #2196f3"/>
     <use xlink:href="#m721cfaa235" x="307.989119" y="127.038085" style="fill: #2196f3; stroke: #2196f3"/>
     <use xlink:href="#m721cfaa235" x="353.703892" y="93.195736" style="fill: #2196f3; stroke: #2196f3"/>
     <use xlink:href="#m721cfaa235" x="399.418665" y="127.038085" style="fill: #2196f3; stroke: #2196f3"/>
     <use xlink:href="#m721cfaa235" x="445.133438" y="160.880434" style="fill: #2196f3; stroke: #2196f3"/>
     <use xlink:href="#m721cfaa235" x="490.84821" y="194.722784" style="fill: #2196f3; stroke: #2196f3"/>
     <use xlink:href="#m721cfaa235" x="536.562983" y="160.880434" style="fill: #2196f3; stroke: #2196f3"/>
     <use xlink:href="#m721cfaa235" x="582.277756" y="127.038085" style="fill: #2196f3; stroke: #2196f3"/>
     <use xlink:href="#m721cfaa235" x="627.992528" y="93.195736" style="fill: #2196f3; stroke: #2196f3"/>
     <use xlink:href="#m721cfaa235" x="673.707301" y="127.038085" style="fill: #2196f3; stroke: #2196f3"/>
     <use xlink:href="#m721cfaa235" x="719.422074" y="93.195736" style="fill: #2196f3; stroke: #2196f3"/>
     <use xlink:href="#m721cfaa235" x="765.136847" y="93.195736" style="fill: #2196f3; stroke: #2196f3"/>
     <use xlink:href="#m721cfaa235" x="810.851619" y="93.195736" style="fill: #2196f3; stroke: #2196f3"/>
    </g>
   </g>
   <g id="line2d_33">
    <path d="M 170.844801 380.855706 
L 170.844801 25.511037 
" clip-path="url(#p7731d3ccd1)" style="fill: none; stroke-dasharray: 5.55,2.4; stroke-dashoffset: 0; stroke: #808080; stroke-opacity: 0.2; stroke-width: 1.5"/>
   </g>
   <g id="line2d_34">
    <path d="M 353.703892 380.855706 
L 353.703892 25.511037 
" clip-path="url(#p7731d3ccd1)" style="fill: none; stroke-dasharray: 5.55,2.4; stroke-dashoffset: 0; stroke: #808080; stroke-opacity: 0.2; stroke-width: 1.5"/>
   </g>
   <g id="line2d_35">
    <path d="M 399.418665 380.855706 
L 399.418665 25.511037 
" clip-path="url(#p7731d3ccd1)" style="fill: none; stroke-dasharray: 5.55,2.4; stroke-dashoffset: 0; stroke: #808080; stroke-opacity: 0.2; stroke-width: 1.5"/>
   </g>
   <g id="line2d_36">
    <path d="M 490.84821 380.855706 
L 490.84821 25.511037 
" clip-path="url(#p7731d3ccd1)" style="fill: none; stroke-dasharray: 5.55,2.4; stroke-dashoffset: 0; stroke: #808080; stroke-opacity: 0.2; stroke-width: 1.5"/>
   </g>
   <g id="line2d_37">
    <path d="M 536.562983 380.855706 
L 536.562983 25.511037 
" clip-path="url(#p7731d3ccd1)" style="fill: none; stroke-dasharray: 5.55,2.4; stroke-dashoffset: 0; stroke: #808080; stroke-opacity: 0.2; stroke-width: 1.5"/>
   </g>
   <g id="line2d_38">
    <path d="M 627.992528 380.855706 
L 627.992528 25.511037 
" clip-path="url(#p7731d3ccd1)" style="fill: none; stroke-dasharray: 5.55,2.4; stroke-dashoffset: 0; stroke: #808080; stroke-opacity: 0.2; stroke-width: 1.5"/>
   </g>
   <g id="line2d_39">
    <path d="M 673.707301 380.855706 
L 673.707301 25.511037 
" clip-path="url(#p7731d3ccd1)" style="fill: none; stroke-dasharray: 5.55,2.4; stroke-dashoffset: 0; stroke: #808080; stroke-opacity: 0.2; stroke-width: 1.5"/>
   </g>
   <g id="line2d_40">
    <path d="M 719.422074 380.855706 
L 719.422074 25.511037 
" clip-path="url(#p7731d3ccd1)" style="fill: none; stroke-dasharray: 5.55,2.4; stroke-dashoffset: 0; stroke: #808080; stroke-opacity: 0.2; stroke-width: 1.5"/>
   </g>
   <g id="patch_3">
    <path d="M 42.843438 380.855706 
L 42.843438 25.511037 
" style="fill: none; stroke: #000000; stroke-width: 0.8; stroke-linejoin: miter; stroke-linecap: square"/>
   </g>
   <g id="patch_4">
    <path d="M 847.423437 380.855706 
L 847.423437 25.511037 
" style="fill: none; stroke: #000000; stroke-width: 0.8; stroke-linejoin: miter; stroke-linecap: square"/>
   </g>
   <g id="patch_5">
    <path d="M 42.843438 380.855706 
L 847.423438 380.855706 
" style="fill: none; stroke: #000000; stroke-width: 0.8; stroke-linejoin: miter; stroke-linecap: square"/>
   </g>
   <g id="patch_6">
    <path d="M 42.843438 25.511037 
L 847.423438 25.511037 
" style="fill: none; stroke: #000000; stroke-width: 0.8; stroke-linejoin: miter; stroke-linecap: square"/>
   </g>
   <g id="text_17">
    <!-- AlexNet -->
    <g transform="translate(162.541213 49.62707) rotate(-45) scale(0.07 -0.07)">
     <defs>
      <path id="DejaVuSans-41" d="M 2188 4044 
L 1331 1722 
L 3047 1722 
L 2188 4044 
z
M 1831 4666 
L 2547 4666 
L 4325 0 
L 3669 0 
L 3244 1197 
L 1141 1197 
L 716 0 
L 50 0 
L 1831 4666 
z
" transform="scale(0.015625)"/>
      <path id="DejaVuSans-6c" d="M 603 4863 
L 1178 4863 
L 1178 0 
L 603 0 
L 603 4863 
z
" transform="scale(0.015625)"/>
      <path id="DejaVuSans-78" d="M 3513 3500 
L 2247 1797 
L 3578 0 
L 2900 0 
L 1881 1375 
L 863 0 
L 184 0 
L 1544 1831 
L 300 3500 
L 978 3500 
L 1906 2253 
L 2834 3500 
L 3513 3500 
z
" transform="scale(0.015625)"/>
      <path id="DejaVuSans-4e" d="M 628 4666 
L 1478 4666 
L 3547 763 
L 3547 4666 
L 4159 4666 
L 4159 0 
L 3309 0 
L 1241 3903 
L 1241 0 
L 628 0 
L 628 4666 
z
" transform="scale(0.015625)"/>
     </defs>
     <use xlink:href="#DejaVuSans-41"/>
     <use xlink:href="#DejaVuSans-6c" transform="translate(68.408203 0)"/>
     <use xlink:href="#DejaVuSans-65" transform="translate(96.191406 0)"/>
     <use xlink:href="#DejaVuSans-78" transform="translate(155.964844 0)"/>
     <use xlink:href="#DejaVuSans-4e" transform="translate(215.144531 0)"/>
     <use xlink:href="#DejaVuSans-65" transform="translate(289.949219 0)"/>
     <use xlink:href="#DejaVuSans-74" transform="translate(351.472656 0)"/>
    </g>
   </g>
   <g id="text_18">
    <!-- AlphaGo -->
    <g transform="translate(344.600997 49.62707) rotate(-45) scale(0.07 -0.07)">
     <defs>
      <path id="DejaVuSans-70" d="M 1159 525 
L 1159 -1331 
L 581 -1331 
L 581 3500 
L 1159 3500 
L 1159 2969 
Q 1341 3281 1617 3432 
Q 1894 3584 2278 3584 
Q 2916 3584 3314 3078 
Q 3713 2572 3713 1747 
Q 3713 922 3314 415 
Q 2916 -91 2278 -91 
Q 1894 -91 1617 61 
Q 1341 213 1159 525 
z
M 3116 1747 
Q 3116 2381 2855 2742 
Q 2594 3103 2138 3103 
Q 1681 3103 1420 2742 
Q 1159 2381 1159 1747 
Q 1159 1113 1420 752 
Q 1681 391 2138 391 
Q 2594 391 2855 752 
Q 3116 1113 3116 1747 
z
" transform="scale(0.015625)"/>
      <path id="DejaVuSans-47" d="M 3809 666 
L 3809 1919 
L 2778 1919 
L 2778 2438 
L 4434 2438 
L 4434 434 
Q 4069 175 3628 42 
Q 3188 -91 2688 -91 
Q 1594 -91 976 548 
Q 359 1188 359 2328 
Q 359 3472 976 4111 
Q 1594 4750 2688 4750 
Q 3144 4750 3555 4637 
Q 3966 4525 4313 4306 
L 4313 3634 
Q 3963 3931 3569 4081 
Q 3175 4231 2741 4231 
Q 1884 4231 1454 3753 
Q 1025 3275 1025 2328 
Q 1025 1384 1454 906 
Q 1884 428 2741 428 
Q 3075 428 3337 486 
Q 3600 544 3809 666 
z
" transform="scale(0.015625)"/>
      <path id="DejaVuSans-6f" d="M 1959 3097 
Q 1497 3097 1228 2736 
Q 959 2375 959 1747 
Q 959 1119 1226 758 
Q 1494 397 1959 397 
Q 2419 397 2687 759 
Q 2956 1122 2956 1747 
Q 2956 2369 2687 2733 
Q 2419 3097 1959 3097 
z
M 1959 3584 
Q 2709 3584 3137 3096 
Q 3566 2609 3566 1747 
Q 3566 888 3137 398 
Q 2709 -91 1959 -91 
Q 1206 -91 779 398 
Q 353 888 353 1747 
Q 353 2609 779 3096 
Q 1206 3584 1959 3584 
z
" transform="scale(0.015625)"/>
     </defs>
     <use xlink:href="#DejaVuSans-41"/>
     <use xlink:href="#DejaVuSans-6c" transform="translate(68.408203 0)"/>
     <use xlink:href="#DejaVuSans-70" transform="translate(96.191406 0)"/>
     <use xlink:href="#DejaVuSans-68" transform="translate(159.667969 0)"/>
     <use xlink:href="#DejaVuSans-61" transform="translate(223.046875 0)"/>
     <use xlink:href="#DejaVuSans-47" transform="translate(284.326172 0)"/>
     <use xlink:href="#DejaVuSans-6f" transform="translate(361.816406 0)"/>
    </g>
   </g>
   <g id="text_19">
    <!-- Transformer -->
    <g transform="translate(385.93563 49.62707) rotate(-45) scale(0.07 -0.07)">
     <defs>
      <path id="DejaVuSans-54" d="M -19 4666 
L 3928 4666 
L 3928 4134 
L 2272 4134 
L 2272 0 
L 1638 0 
L 1638 4134 
L -19 4134 
L -19 4666 
z
" transform="scale(0.015625)"/>
      <path id="DejaVuSans-6e" d="M 3513 2113 
L 3513 0 
L 2938 0 
L 2938 2094 
Q 2938 2591 2744 2837 
Q 2550 3084 2163 3084 
Q 1697 3084 1428 2787 
Q 1159 2491 1159 1978 
L 1159 0 
L 581 0 
L 581 3500 
L 1159 3500 
L 1159 2956 
Q 1366 3272 1645 3428 
Q 1925 3584 2291 3584 
Q 2894 3584 3203 3211 
Q 3513 2838 3513 2113 
z
" transform="scale(0.015625)"/>
      <path id="DejaVuSans-73" d="M 2834 3397 
L 2834 2853 
Q 2591 2978 2328 3040 
Q 2066 3103 1784 3103 
Q 1356 3103 1142 2972 
Q 928 2841 928 2578 
Q 928 2378 1081 2264 
Q 1234 2150 1697 2047 
L 1894 2003 
Q 2506 1872 2764 1633 
Q 3022 1394 3022 966 
Q 3022 478 2636 193 
Q 2250 -91 1575 -91 
Q 1294 -91 989 -36 
Q 684 19 347 128 
L 347 722 
Q 666 556 975 473 
Q 1284 391 1588 391 
Q 1994 391 2212 530 
Q 2431 669 2431 922 
Q 2431 1156 2273 1281 
Q 2116 1406 1581 1522 
L 1381 1569 
Q 847 1681 609 1914 
Q 372 2147 372 2553 
Q 372 3047 722 3315 
Q 1072 3584 1716 3584 
Q 2034 3584 2315 3537 
Q 2597 3491 2834 3397 
z
" transform="scale(0.015625)"/>
      <path id="DejaVuSans-66" d="M 2375 4863 
L 2375 4384 
L 1825 4384 
Q 1516 4384 1395 4259 
Q 1275 4134 1275 3809 
L 1275 3500 
L 2222 3500 
L 2222 3053 
L 1275 3053 
L 1275 0 
L 697 0 
L 697 3053 
L 147 3053 
L 147 3500 
L 697 3500 
L 697 3744 
Q 697 4328 969 4595 
Q 1241 4863 1831 4863 
L 2375 4863 
z
" transform="scale(0.015625)"/>
      <path id="DejaVuSans-6d" d="M 3328 2828 
Q 3544 3216 3844 3400 
Q 4144 3584 4550 3584 
Q 5097 3584 5394 3201 
Q 5691 2819 5691 2113 
L 5691 0 
L 5113 0 
L 5113 2094 
Q 5113 2597 4934 2840 
Q 4756 3084 4391 3084 
Q 3944 3084 3684 2787 
Q 3425 2491 3425 1978 
L 3425 0 
L 2847 0 
L 2847 2094 
Q 2847 2600 2669 2842 
Q 2491 3084 2119 3084 
Q 1678 3084 1418 2786 
Q 1159 2488 1159 1978 
L 1159 0 
L 581 0 
L 581 3500 
L 1159 3500 
L 1159 2956 
Q 1356 3278 1631 3431 
Q 1906 3584 2284 3584 
Q 2666 3584 2933 3390 
Q 3200 3197 3328 2828 
z
" transform="scale(0.015625)"/>
     </defs>
     <use xlink:href="#DejaVuSans-54"/>
     <use xlink:href="#DejaVuSans-72" transform="translate(46.333984 0)"/>
     <use xlink:href="#DejaVuSans-61" transform="translate(87.447266 0)"/>
     <use xlink:href="#DejaVuSans-6e" transform="translate(148.726562 0)"/>
     <use xlink:href="#DejaVuSans-73" transform="translate(212.105469 0)"/>
     <use xlink:href="#DejaVuSans-66" transform="translate(264.205078 0)"/>
     <use xlink:href="#DejaVuSans-6f" transform="translate(299.410156 0)"/>
     <use xlink:href="#DejaVuSans-72" transform="translate(360.591797 0)"/>
     <use xlink:href="#DejaVuSans-6d" transform="translate(399.955078 0)"/>
     <use xlink:href="#DejaVuSans-65" transform="translate(497.367188 0)"/>
     <use xlink:href="#DejaVuSans-72" transform="translate(558.890625 0)"/>
    </g>
   </g>
   <g id="text_20">
    <!-- GPT-2 -->
    <g transform="translate(485.050819 49.62707) rotate(-45) scale(0.07 -0.07)">
     <defs>
      <path id="DejaVuSans-50" d="M 1259 4147 
L 1259 2394 
L 2053 2394 
Q 2494 2394 2734 2622 
Q 2975 2850 2975 3272 
Q 2975 3691 2734 3919 
Q 2494 4147 2053 4147 
L 1259 4147 
z
M 628 4666 
L 2053 4666 
Q 2838 4666 3239 4311 
Q 3641 3956 3641 3272 
Q 3641 2581 3239 2228 
Q 2838 1875 2053 1875 
L 1259 1875 
L 1259 0 
L 628 0 
L 628 4666 
z
" transform="scale(0.015625)"/>
     </defs>
     <use xlink:href="#DejaVuSans-47"/>
     <use xlink:href="#DejaVuSans-50" transform="translate(77.490234 0)"/>
     <use xlink:href="#DejaVuSans-54" transform="translate(137.792969 0)"/>
     <use xlink:href="#DejaVuSans-2d" transform="translate(189.751953 0)"/>
     <use xlink:href="#DejaVuSans-32" transform="translate(225.835938 0)"/>
    </g>
   </g>
   <g id="text_21">
    <!-- GPT-3 -->
    <g transform="translate(530.765591 49.62707) rotate(-45) scale(0.07 -0.07)">
     <defs>
      <path id="DejaVuSans-33" d="M 2597 2516 
Q 3050 2419 3304 2112 
Q 3559 1806 3559 1356 
Q 3559 666 3084 287 
Q 2609 -91 1734 -91 
Q 1441 -91 1130 -33 
Q 819 25 488 141 
L 488 750 
Q 750 597 1062 519 
Q 1375 441 1716 441 
Q 2309 441 2620 675 
Q 2931 909 2931 1356 
Q 2931 1769 2642 2001 
Q 2353 2234 1838 2234 
L 1294 2234 
L 1294 2753 
L 1863 2753 
Q 2328 2753 2575 2939 
Q 2822 3125 2822 3475 
Q 2822 3834 2567 4026 
Q 2313 4219 1838 4219 
Q 1578 4219 1281 4162 
Q 984 4106 628 3988 
L 628 4550 
Q 988 4650 1302 4700 
Q 1616 4750 1894 4750 
Q 2613 4750 3031 4423 
Q 3450 4097 3450 3541 
Q 3450 3153 3228 2886 
Q 3006 2619 2597 2516 
z
" transform="scale(0.015625)"/>
     </defs>
     <use xlink:href="#DejaVuSans-47"/>
     <use xlink:href="#DejaVuSans-50" transform="translate(77.490234 0)"/>
     <use xlink:href="#DejaVuSans-54" transform="translate(137.792969 0)"/>
     <use xlink:href="#DejaVuSans-2d" transform="translate(189.751953 0)"/>
     <use xlink:href="#DejaVuSans-33" transform="translate(225.835938 0)"/>
    </g>
   </g>
   <g id="text_22">
    <!-- ChatGPT -->
    <g transform="translate(618.65336 49.62707) rotate(-45) scale(0.07 -0.07)">
     <defs>
      <path id="DejaVuSans-43" d="M 4122 4306 
L 4122 3641 
Q 3803 3938 3442 4084 
Q 3081 4231 2675 4231 
Q 1875 4231 1450 3742 
Q 1025 3253 1025 2328 
Q 1025 1406 1450 917 
Q 1875 428 2675 428 
Q 3081 428 3442 575 
Q 3803 722 4122 1019 
L 4122 359 
Q 3791 134 3420 21 
Q 3050 -91 2638 -91 
Q 1578 -91 968 557 
Q 359 1206 359 2328 
Q 359 3453 968 4101 
Q 1578 4750 2638 4750 
Q 3056 4750 3426 4639 
Q 3797 4528 4122 4306 
z
" transform="scale(0.015625)"/>
     </defs>
     <use xlink:href="#DejaVuSans-43"/>
     <use xlink:href="#DejaVuSans-68" transform="translate(69.824219 0)"/>
     <use xlink:href="#DejaVuSans-61" transform="translate(133.203125 0)"/>
     <use xlink:href="#DejaVuSans-74" transform="translate(194.482422 0)"/>
     <use xlink:href="#DejaVuSans-47" transform="translate(233.691406 0)"/>
     <use xlink:href="#DejaVuSans-50" transform="translate(311.181641 0)"/>
     <use xlink:href="#DejaVuSans-54" transform="translate(371.484375 0)"/>
    </g>
   </g>
   <g id="text_23">
    <!-- GPT-4 -->
    <g transform="translate(667.909909 49.62707) rotate(-45) scale(0.07 -0.07)">
     <use xlink:href="#DejaVuSans-47"/>
     <use xlink:href="#DejaVuSans-50" transform="translate(77.490234 0)"/>
     <use xlink:href="#DejaVuSans-54" transform="translate(137.792969 0)"/>
     <use xlink:href="#DejaVuSans-2d" transform="translate(189.751953 0)"/>
     <use xlink:href="#DejaVuSans-34" transform="translate(225.835938 0)"/>
    </g>
   </g>
   <g id="text_24">
    <!-- Nobel/EU AI Act -->
    <g transform="translate(701.454877 49.62707) rotate(-45) scale(0.07 -0.07)">
     <defs>
      <path id="DejaVuSans-62" d="M 3116 1747 
Q 3116 2381 2855 2742 
Q 2594 3103 2138 3103 
Q 1681 3103 1420 2742 
Q 1159 2381 1159 1747 
Q 1159 1113 1420 752 
Q 1681 391 2138 391 
Q 2594 391 2855 752 
Q 3116 1113 3116 1747 
z
M 1159 2969 
Q 1341 3281 1617 3432 
Q 1894 3584 2278 3584 
Q 2916 3584 3314 3078 
Q 3713 2572 3713 1747 
Q 3713 922 3314 415 
Q 2916 -91 2278 -91 
Q 1894 -91 1617 61 
Q 1341 213 1159 525 
L 1159 0 
L 581 0 
L 581 4863 
L 1159 4863 
L 1159 2969 
z
" transform="scale(0.015625)"/>
      <path id="DejaVuSans-2f" d="M 1625 4666 
L 2156 4666 
L 531 -594 
L 0 -594 
L 1625 4666 
z
" transform="scale(0.015625)"/>
      <path id="DejaVuSans-45" d="M 628 4666 
L 3578 4666 
L 3578 4134 
L 1259 4134 
L 1259 2753 
L 3481 2753 
L 3481 2222 
L 1259 2222 
L 1259 531 
L 3634 531 
L 3634 0 
L 628 0 
L 628 4666 
z
" transform="scale(0.015625)"/>
      <path id="DejaVuSans-55" d="M 556 4666 
L 1191 4666 
L 1191 1831 
Q 1191 1081 1462 751 
Q 1734 422 2344 422 
Q 2950 422 3222 751 
Q 3494 1081 3494 1831 
L 3494 4666 
L 4128 4666 
L 4128 1753 
Q 4128 841 3676 375 
Q 3225 -91 2344 -91 
Q 1459 -91 1007 375 
Q 556 841 556 1753 
L 556 4666 
z
" transform="scale(0.015625)"/>
      <path id="DejaVuSans-49" d="M 628 4666 
L 1259 4666 
L 1259 0 
L 628 0 
L 628 4666 
z
" transform="scale(0.015625)"/>
      <path id="DejaVuSans-63" d="M 3122 3366 
L 3122 2828 
Q 2878 2963 2633 3030 
Q 2388 3097 2138 3097 
Q 1578 3097 1268 2742 
Q 959 2388 959 1747 
Q 959 1106 1268 751 
Q 1578 397 2138 397 
Q 2388 397 2633 464 
Q 2878 531 3122 666 
L 3122 134 
Q 2881 22 2623 -34 
Q 2366 -91 2075 -91 
Q 1284 -91 818 406 
Q 353 903 353 1747 
Q 353 2603 823 3093 
Q 1294 3584 2113 3584 
Q 2378 3584 2631 3529 
Q 2884 3475 3122 3366 
z
" transform="scale(0.015625)"/>
     </defs>
     <use xlink:href="#DejaVuSans-4e"/>
     <use xlink:href="#DejaVuSans-6f" transform="translate(74.804688 0)"/>
     <use xlink:href="#DejaVuSans-62" transform="translate(135.986328 0)"/>
     <use xlink:href="#DejaVuSans-65" transform="translate(199.462891 0)"/>
     <use xlink:href="#DejaVuSans-6c" transform="translate(260.986328 0)"/>
     <use xlink:href="#DejaVuSans-2f" transform="translate(288.769531 0)"/>
     <use xlink:href="#DejaVuSans-45" transform="translate(322.460938 0)"/>
     <use xlink:href="#DejaVuSans-55" transform="translate(385.644531 0)"/>
     <use xlink:href="#DejaVuSans-20" transform="translate(458.837891 0)"/>
     <use xlink:href="#DejaVuSans-41" transform="translate(490.625 0)"/>
     <use xlink:href="#DejaVuSans-49" transform="translate(559.033203 0)"/>
     <use xlink:href="#DejaVuSans-20" transform="translate(588.525391 0)"/>
     <use xlink:href="#DejaVuSans-41" transform="translate(620.3125 0)"/>
     <use xlink:href="#DejaVuSans-63" transform="translate(686.970703 0)"/>
     <use xlink:href="#DejaVuSans-74" transform="translate(741.951172 0)"/>
    </g>
   </g>
   <g id="text_25">
    <!-- Schluesseltrends im Weltbild der KI-Elite (2010-2026) -->
    <g transform="translate(248.058516 19.511037) scale(0.13 -0.13)">
     <defs>
      <path id="DejaVuSans-Bold-53" d="M 3834 4519 
L 3834 3531 
Q 3450 3703 3084 3790 
Q 2719 3878 2394 3878 
Q 1963 3878 1756 3759 
Q 1550 3641 1550 3391 
Q 1550 3203 1689 3098 
Q 1828 2994 2194 2919 
L 2706 2816 
Q 3484 2659 3812 2340 
Q 4141 2022 4141 1434 
Q 4141 663 3683 286 
Q 3225 -91 2284 -91 
Q 1841 -91 1394 -6 
Q 947 78 500 244 
L 500 1259 
Q 947 1022 1364 901 
Q 1781 781 2169 781 
Q 2563 781 2772 912 
Q 2981 1044 2981 1288 
Q 2981 1506 2839 1625 
Q 2697 1744 2272 1838 
L 1806 1941 
Q 1106 2091 782 2419 
Q 459 2747 459 3303 
Q 459 4000 909 4375 
Q 1359 4750 2203 4750 
Q 2588 4750 2994 4692 
Q 3400 4634 3834 4519 
z
" transform="scale(0.015625)"/>
      <path id="DejaVuSans-Bold-63" d="M 3366 3391 
L 3366 2478 
Q 3138 2634 2908 2709 
Q 2678 2784 2431 2784 
Q 1963 2784 1702 2511 
Q 1441 2238 1441 1747 
Q 1441 1256 1702 982 
Q 1963 709 2431 709 
Q 2694 709 2930 787 
Q 3166 866 3366 1019 
L 3366 103 
Q 3103 6 2833 -42 
Q 2563 -91 2291 -91 
Q 1344 -91 809 395 
Q 275 881 275 1747 
Q 275 2613 809 3098 
Q 1344 3584 2291 3584 
Q 2566 3584 2833 3536 
Q 3100 3488 3366 3391 
z
" transform="scale(0.015625)"/>
      <path id="DejaVuSans-Bold-68" d="M 4056 2131 
L 4056 0 
L 2931 0 
L 2931 347 
L 2931 1625 
Q 2931 2084 2911 2256 
Q 2891 2428 2841 2509 
Q 2775 2619 2662 2680 
Q 2550 2741 2406 2741 
Q 2056 2741 1856 2470 
Q 1656 2200 1656 1722 
L 1656 0 
L 538 0 
L 538 4863 
L 1656 4863 
L 1656 2988 
Q 1909 3294 2193 3439 
Q 2478 3584 2822 3584 
Q 3428 3584 3742 3212 
Q 4056 2841 4056 2131 
z
" transform="scale(0.015625)"/>
      <path id="DejaVuSans-Bold-6c" d="M 538 4863 
L 1656 4863 
L 1656 0 
L 538 0 
L 538 4863 
z
" transform="scale(0.015625)"/>
      <path id="DejaVuSans-Bold-75" d="M 500 1363 
L 500 3500 
L 1625 3500 
L 1625 3150 
Q 1625 2866 1622 2436 
Q 1619 2006 1619 1863 
Q 1619 1441 1641 1255 
Q 1663 1069 1716 984 
Q 1784 875 1895 815 
Q 2006 756 2150 756 
Q 2500 756 2700 1025 
Q 2900 1294 2900 1772 
L 2900 3500 
L 4019 3500 
L 4019 0 
L 2900 0 
L 2900 506 
Q 2647 200 2364 54 
Q 2081 -91 1741 -91 
Q 1134 -91 817 281 
Q 500 653 500 1363 
z
" transform="scale(0.015625)"/>
      <path id="DejaVuSans-Bold-65" d="M 4031 1759 
L 4031 1441 
L 1416 1441 
Q 1456 1047 1700 850 
Q 1944 653 2381 653 
Q 2734 653 3104 758 
Q 3475 863 3866 1075 
L 3866 213 
Q 3469 63 3072 -14 
Q 2675 -91 2278 -91 
Q 1328 -91 801 392 
Q 275 875 275 1747 
Q 275 2603 792 3093 
Q 1309 3584 2216 3584 
Q 3041 3584 3536 3087 
Q 4031 2591 4031 1759 
z
M 2881 2131 
Q 2881 2450 2695 2645 
Q 2509 2841 2209 2841 
Q 1884 2841 1681 2658 
Q 1478 2475 1428 2131 
L 2881 2131 
z
" transform="scale(0.015625)"/>
      <path id="DejaVuSans-Bold-73" d="M 3272 3391 
L 3272 2541 
Q 2913 2691 2578 2766 
Q 2244 2841 1947 2841 
Q 1628 2841 1473 2761 
Q 1319 2681 1319 2516 
Q 1319 2381 1436 2309 
Q 1553 2238 1856 2203 
L 2053 2175 
Q 2913 2066 3209 1816 
Q 3506 1566 3506 1031 
Q 3506 472 3093 190 
Q 2681 -91 1863 -91 
Q 1516 -91 1145 -36 
Q 775 19 384 128 
L 384 978 
Q 719 816 1070 734 
Q 1422 653 1784 653 
Q 2113 653 2278 743 
Q 2444 834 2444 1013 
Q 2444 1163 2330 1236 
Q 2216 1309 1875 1350 
L 1678 1375 
Q 931 1469 631 1722 
Q 331 1975 331 2491 
Q 331 3047 712 3315 
Q 1094 3584 1881 3584 
Q 2191 3584 2531 3537 
Q 2872 3491 3272 3391 
z
" transform="scale(0.015625)"/>
      <path id="DejaVuSans-Bold-74" d="M 1759 4494 
L 1759 3500 
L 2913 3500 
L 2913 2700 
L 1759 2700 
L 1759 1216 
Q 1759 972 1856 886 
Q 1953 800 2241 800 
L 2816 800 
L 2816 0 
L 1856 0 
Q 1194 0 917 276 
Q 641 553 641 1216 
L 641 2700 
L 84 2700 
L 84 3500 
L 641 3500 
L 641 4494 
L 1759 4494 
z
" transform="scale(0.015625)"/>
      <path id="DejaVuSans-Bold-72" d="M 3138 2547 
Q 2991 2616 2845 2648 
Q 2700 2681 2553 2681 
Q 2122 2681 1889 2404 
Q 1656 2128 1656 1613 
L 1656 0 
L 538 0 
L 538 3500 
L 1656 3500 
L 1656 2925 
Q 1872 3269 2151 3426 
Q 2431 3584 2822 3584 
Q 2878 3584 2943 3579 
Q 3009 3575 3134 3559 
L 3138 2547 
z
" transform="scale(0.015625)"/>
      <path id="DejaVuSans-Bold-6e" d="M 4056 2131 
L 4056 0 
L 2931 0 
L 2931 347 
L 2931 1631 
Q 2931 2084 2911 2256 
Q 2891 2428 2841 2509 
Q 2775 2619 2662 2680 
Q 2550 2741 2406 2741 
Q 2056 2741 1856 2470 
Q 1656 2200 1656 1722 
L 1656 0 
L 538 0 
L 538 3500 
L 1656 3500 
L 1656 2988 
Q 1909 3294 2193 3439 
Q 2478 3584 2822 3584 
Q 3428 3584 3742 3212 
Q 4056 2841 4056 2131 
z
" transform="scale(0.015625)"/>
      <path id="DejaVuSans-Bold-64" d="M 2919 2988 
L 2919 4863 
L 4044 4863 
L 4044 0 
L 2919 0 
L 2919 506 
Q 2688 197 2409 53 
Q 2131 -91 1766 -91 
Q 1119 -91 703 423 
Q 288 938 288 1747 
Q 288 2556 703 3070 
Q 1119 3584 1766 3584 
Q 2128 3584 2408 3439 
Q 2688 3294 2919 2988 
z
M 2181 722 
Q 2541 722 2730 984 
Q 2919 1247 2919 1747 
Q 2919 2247 2730 2509 
Q 2541 2772 2181 2772 
Q 1825 2772 1636 2509 
Q 1447 2247 1447 1747 
Q 1447 1247 1636 984 
Q 1825 722 2181 722 
z
" transform="scale(0.015625)"/>
      <path id="DejaVuSans-Bold-20" transform="scale(0.015625)"/>
      <path id="DejaVuSans-Bold-69" d="M 538 3500 
L 1656 3500 
L 1656 0 
L 538 0 
L 538 3500 
z
M 538 4863 
L 1656 4863 
L 1656 3950 
L 538 3950 
L 538 4863 
z
" transform="scale(0.015625)"/>
      <path id="DejaVuSans-Bold-6d" d="M 3781 2919 
Q 3994 3244 4286 3414 
Q 4578 3584 4928 3584 
Q 5531 3584 5847 3212 
Q 6163 2841 6163 2131 
L 6163 0 
L 5038 0 
L 5038 1825 
Q 5041 1866 5042 1909 
Q 5044 1953 5044 2034 
Q 5044 2406 4934 2573 
Q 4825 2741 4581 2741 
Q 4263 2741 4089 2478 
Q 3916 2216 3909 1719 
L 3909 0 
L 2784 0 
L 2784 1825 
Q 2784 2406 2684 2573 
Q 2584 2741 2328 2741 
Q 2006 2741 1831 2477 
Q 1656 2213 1656 1722 
L 1656 0 
L 531 0 
L 531 3500 
L 1656 3500 
L 1656 2988 
Q 1863 3284 2130 3434 
Q 2397 3584 2719 3584 
Q 3081 3584 3359 3409 
Q 3638 3234 3781 2919 
z
" transform="scale(0.015625)"/>
      <path id="DejaVuSans-Bold-57" d="M 191 4666 
L 1344 4666 
L 2150 1275 
L 2950 4666 
L 4109 4666 
L 4909 1275 
L 5716 4666 
L 6859 4666 
L 5759 0 
L 4372 0 
L 3525 3547 
L 2688 0 
L 1300 0 
L 191 4666 
z
" transform="scale(0.015625)"/>
      <path id="DejaVuSans-Bold-62" d="M 2400 722 
Q 2759 722 2948 984 
Q 3138 1247 3138 1747 
Q 3138 2247 2948 2509 
Q 2759 2772 2400 2772 
Q 2041 2772 1848 2508 
Q 1656 2244 1656 1747 
Q 1656 1250 1848 986 
Q 2041 722 2400 722 
z
M 1656 2988 
Q 1888 3294 2169 3439 
Q 2450 3584 2816 3584 
Q 3463 3584 3878 3070 
Q 4294 2556 4294 1747 
Q 4294 938 3878 423 
Q 3463 -91 2816 -91 
Q 2450 -91 2169 54 
Q 1888 200 1656 506 
L 1656 0 
L 538 0 
L 538 4863 
L 1656 4863 
L 1656 2988 
z
" transform="scale(0.015625)"/>
      <path id="DejaVuSans-Bold-4b" d="M 588 4666 
L 1791 4666 
L 1791 2963 
L 3525 4666 
L 4922 4666 
L 2675 2456 
L 5153 0 
L 3647 0 
L 1791 1838 
L 1791 0 
L 588 0 
L 588 4666 
z
" transform="scale(0.015625)"/>
      <path id="DejaVuSans-Bold-49" d="M 588 4666 
L 1791 4666 
L 1791 0 
L 588 0 
L 588 4666 
z
" transform="scale(0.015625)"/>
      <path id="DejaVuSans-Bold-2d" d="M 347 2297 
L 2309 2297 
L 2309 1388 
L 347 1388 
L 347 2297 
z
" transform="scale(0.015625)"/>
      <path id="DejaVuSans-Bold-45" d="M 588 4666 
L 3834 4666 
L 3834 3756 
L 1791 3756 
L 1791 2888 
L 3713 2888 
L 3713 1978 
L 1791 1978 
L 1791 909 
L 3903 909 
L 3903 0 
L 588 0 
L 588 4666 
z
" transform="scale(0.015625)"/>
      <path id="DejaVuSans-Bold-28" d="M 2413 -844 
L 1484 -844 
Q 1006 -72 778 623 
Q 550 1319 550 2003 
Q 550 2688 779 3389 
Q 1009 4091 1484 4856 
L 2413 4856 
Q 2013 4116 1813 3408 
Q 1613 2700 1613 2009 
Q 1613 1319 1811 609 
Q 2009 -100 2413 -844 
z
" transform="scale(0.015625)"/>
      <path id="DejaVuSans-Bold-32" d="M 1844 884 
L 3897 884 
L 3897 0 
L 506 0 
L 506 884 
L 2209 2388 
Q 2438 2594 2547 2791 
Q 2656 2988 2656 3200 
Q 2656 3528 2436 3728 
Q 2216 3928 1850 3928 
Q 1569 3928 1234 3808 
Q 900 3688 519 3450 
L 519 4475 
Q 925 4609 1322 4679 
Q 1719 4750 2100 4750 
Q 2938 4750 3402 4381 
Q 3866 4013 3866 3353 
Q 3866 2972 3669 2642 
Q 3472 2313 2841 1759 
L 1844 884 
z
" transform="scale(0.015625)"/>
      <path id="DejaVuSans-Bold-30" d="M 2944 2338 
Q 2944 3213 2780 3570 
Q 2616 3928 2228 3928 
Q 1841 3928 1675 3570 
Q 1509 3213 1509 2338 
Q 1509 1453 1675 1090 
Q 1841 728 2228 728 
Q 2613 728 2778 1090 
Q 2944 1453 2944 2338 
z
M 4147 2328 
Q 4147 1169 3647 539 
Q 3147 -91 2228 -91 
Q 1306 -91 806 539 
Q 306 1169 306 2328 
Q 306 3491 806 4120 
Q 1306 4750 2228 4750 
Q 3147 4750 3647 4120 
Q 4147 3491 4147 2328 
z
" transform="scale(0.015625)"/>
      <path id="DejaVuSans-Bold-31" d="M 750 831 
L 1813 831 
L 1813 3847 
L 722 3622 
L 722 4441 
L 1806 4666 
L 2950 4666 
L 2950 831 
L 4013 831 
L 4013 0 
L 750 0 
L 750 831 
z
" transform="scale(0.015625)"/>
      <path id="DejaVuSans-Bold-36" d="M 2316 2303 
Q 2000 2303 1842 2098 
Q 1684 1894 1684 1484 
Q 1684 1075 1842 870 
Q 2000 666 2316 666 
Q 2634 666 2792 870 
Q 2950 1075 2950 1484 
Q 2950 1894 2792 2098 
Q 2634 2303 2316 2303 
z
M 3803 4544 
L 3803 3681 
Q 3506 3822 3243 3889 
Q 2981 3956 2731 3956 
Q 2194 3956 1894 3657 
Q 1594 3359 1544 2772 
Q 1750 2925 1990 3001 
Q 2231 3078 2516 3078 
Q 3231 3078 3670 2659 
Q 4109 2241 4109 1563 
Q 4109 813 3618 361 
Q 3128 -91 2303 -91 
Q 1394 -91 895 523 
Q 397 1138 397 2266 
Q 397 3422 980 4083 
Q 1563 4744 2578 4744 
Q 2900 4744 3203 4694 
Q 3506 4644 3803 4544 
z
" transform="scale(0.015625)"/>
      <path id="DejaVuSans-Bold-29" d="M 513 -844 
Q 913 -100 1113 609 
Q 1313 1319 1313 2009 
Q 1313 2700 1113 3408 
Q 913 4116 513 4856 
L 1441 4856 
Q 1916 4091 2145 3389 
Q 2375 2688 2375 2003 
Q 2375 1319 2147 623 
Q 1919 -72 1441 -844 
L 513 -844 
z
" transform="scale(0.015625)"/>
     </defs>
     <use xlink:href="#DejaVuSans-Bold-53"/>
     <use xlink:href="#DejaVuSans-Bold-63" transform="translate(72.021484 0)"/>
     <use xlink:href="#DejaVuSans-Bold-68" transform="translate(131.298828 0)"/>
     <use xlink:href="#DejaVuSans-Bold-6c" transform="translate(202.490234 0)"/>
     <use xlink:href="#DejaVuSans-Bold-75" transform="translate(236.767578 0)"/>
     <use xlink:href="#DejaVuSans-Bold-65" transform="translate(307.958984 0)"/>
     <use xlink:href="#DejaVuSans-Bold-73" transform="translate(375.78125 0)"/>
     <use xlink:href="#DejaVuSans-Bold-73" transform="translate(435.302734 0)"/>
     <use xlink:href="#DejaVuSans-Bold-65" transform="translate(494.824219 0)"/>
     <use xlink:href="#DejaVuSans-Bold-6c" transform="translate(562.646484 0)"/>
     <use xlink:href="#DejaVuSans-Bold-74" transform="translate(596.923828 0)"/>
     <use xlink:href="#DejaVuSans-Bold-72" transform="translate(644.726562 0)"/>
     <use xlink:href="#DejaVuSans-Bold-65" transform="translate(694.042969 0)"/>
     <use xlink:href="#DejaVuSans-Bold-6e" transform="translate(761.865234 0)"/>
     <use xlink:href="#DejaVuSans-Bold-64" transform="translate(833.056641 0)"/>
     <use xlink:href="#DejaVuSans-Bold-73" transform="translate(904.638672 0)"/>
     <use xlink:href="#DejaVuSans-Bold-20" transform="translate(964.160156 0)"/>
     <use xlink:href="#DejaVuSans-Bold-69" transform="translate(998.974609 0)"/>
     <use xlink:href="#DejaVuSans-Bold-6d" transform="translate(1033.251953 0)"/>
     <use xlink:href="#DejaVuSans-Bold-20" transform="translate(1137.451172 0)"/>
     <use xlink:href="#DejaVuSans-Bold-57" transform="translate(1172.265625 0)"/>
     <use xlink:href="#DejaVuSans-Bold-65" transform="translate(1278.943359 0)"/>
     <use xlink:href="#DejaVuSans-Bold-6c" transform="translate(1346.765625 0)"/>
     <use xlink:href="#DejaVuSans-Bold-74" transform="translate(1381.042969 0)"/>
     <use xlink:href="#DejaVuSans-Bold-62" transform="translate(1428.845703 0)"/>
     <use xlink:href="#DejaVuSans-Bold-69" transform="translate(1500.427734 0)"/>
     <use xlink:href="#DejaVuSans-Bold-6c" transform="translate(1534.705078 0)"/>
     <use xlink:href="#DejaVuSans-Bold-64" transform="translate(1568.982422 0)"/>
     <use xlink:href="#DejaVuSans-Bold-20" transform="translate(1640.564453 0)"/>
     <use xlink:href="#DejaVuSans-Bold-64" transform="translate(1675.378906 0)"/>
     <use xlink:href="#DejaVuSans-Bold-65" transform="translate(1746.960938 0)"/>
     <use xlink:href="#DejaVuSans-Bold-72" transform="translate(1814.783203 0)"/>
     <use xlink:href="#DejaVuSans-Bold-20" transform="translate(1864.099609 0)"/>
     <use xlink:href="#DejaVuSans-Bold-4b" transform="translate(1898.914062 0)"/>
     <use xlink:href="#DejaVuSans-Bold-49" transform="translate(1976.404297 0)"/>
     <use xlink:href="#DejaVuSans-Bold-2d" transform="translate(2013.611328 0)"/>
     <use xlink:href="#DejaVuSans-Bold-45" transform="translate(2055.115234 0)"/>
     <use xlink:href="#DejaVuSans-Bold-6c" transform="translate(2123.425781 0)"/>
     <use xlink:href="#DejaVuSans-Bold-69" transform="translate(2157.703125 0)"/>
     <use xlink:href="#DejaVuSans-Bold-74" transform="translate(2191.980469 0)"/>
     <use xlink:href="#DejaVuSans-Bold-65" transform="translate(2239.783203 0)"/>
     <use xlink:href="#DejaVuSans-Bold-20" transform="translate(2307.605469 0)"/>
     <use xlink:href="#DejaVuSans-Bold-28" transform="translate(2342.419922 0)"/>
     <use xlink:href="#DejaVuSans-Bold-32" transform="translate(2388.123047 0)"/>
     <use xlink:href="#DejaVuSans-Bold-30" transform="translate(2457.703125 0)"/>
     <use xlink:href="#DejaVuSans-Bold-31" transform="translate(2527.283203 0)"/>
     <use xlink:href="#DejaVuSans-Bold-30" transform="translate(2596.863281 0)"/>
     <use xlink:href="#DejaVuSans-Bold-2d" transform="translate(2666.443359 0)"/>
     <use xlink:href="#DejaVuSans-Bold-32" transform="translate(2707.947266 0)"/>
     <use xlink:href="#DejaVuSans-Bold-30" transform="translate(2777.527344 0)"/>
     <use xlink:href="#DejaVuSans-Bold-32" transform="translate(2847.107422 0)"/>
     <use xlink:href="#DejaVuSans-Bold-36" transform="translate(2916.6875 0)"/>
     <use xlink:href="#DejaVuSans-Bold-29" transform="translate(2986.267578 0)"/>
    </g>
   </g>
   <g id="legend_1">
    <g id="patch_7">
     <path d="M 50.543438 375.355706 
L 234.087031 375.355706 
Q 236.287031 375.355706 236.287031 373.155706 
L 236.287031 309.671956 
Q 236.287031 307.471956 234.087031 307.471956 
L 50.543438 307.471956 
Q 48.343438 307.471956 48.343438 309.671956 
L 48.343438 373.155706 
Q 48.343438 375.355706 50.543438 375.355706 
z
" style="fill: #ffffff; opacity: 0.8; stroke: #cccccc; stroke-linejoin: miter"/>
    </g>
    <g id="line2d_41">
     <path d="M 52.743438 316.380237 
L 63.743438 316.380237 
L 74.743437 316.380237 
" style="fill: none; stroke: #9c27b0; stroke-width: 2; stroke-linecap: square"/>
     <g>
      <use xlink:href="#m432158872b" x="63.743438" y="316.380237" style="fill: #9c27b0; stroke: #9c27b0"/>
     </g>
    </g>
    <g id="text_26">
     <!-- D10 Transhumanismus -->
     <g transform="translate(83.543438 320.230237) scale(0.11 -0.11)">
      <defs>
       <path id="DejaVuSans-44" d="M 1259 4147 
L 1259 519 
L 2022 519 
Q 2988 519 3436 956 
Q 3884 1394 3884 2338 
Q 3884 3275 3436 3711 
Q 2988 4147 2022 4147 
L 1259 4147 
z
M 628 4666 
L 1925 4666 
Q 3281 4666 3915 4102 
Q 4550 3538 4550 2338 
Q 4550 1131 3912 565 
Q 3275 0 1925 0 
L 628 0 
L 628 4666 
z
" transform="scale(0.015625)"/>
       <path id="DejaVuSans-75" d="M 544 1381 
L 544 3500 
L 1119 3500 
L 1119 1403 
Q 1119 906 1312 657 
Q 1506 409 1894 409 
Q 2359 409 2629 706 
Q 2900 1003 2900 1516 
L 2900 3500 
L 3475 3500 
L 3475 0 
L 2900 0 
L 2900 538 
Q 2691 219 2414 64 
Q 2138 -91 1772 -91 
Q 1169 -91 856 284 
Q 544 659 544 1381 
z
M 1991 3584 
L 1991 3584 
z
" transform="scale(0.015625)"/>
       <path id="DejaVuSans-69" d="M 603 3500 
L 1178 3500 
L 1178 0 
L 603 0 
L 603 3500 
z
M 603 4863 
L 1178 4863 
L 1178 4134 
L 603 4134 
L 603 4863 
z
" transform="scale(0.015625)"/>
      </defs>
      <use xlink:href="#DejaVuSans-44"/>
      <use xlink:href="#DejaVuSans-31" transform="translate(77.001953 0)"/>
      <use xlink:href="#DejaVuSans-30" transform="translate(140.625 0)"/>
      <use xlink:href="#DejaVuSans-20" transform="translate(204.248047 0)"/>
      <use xlink:href="#DejaVuSans-54" transform="translate(236.035156 0)"/>
      <use xlink:href="#DejaVuSans-72" transform="translate(282.369141 0)"/>
      <use xlink:href="#DejaVuSans-61" transform="translate(323.482422 0)"/>
      <use xlink:href="#DejaVuSans-6e" transform="translate(384.761719 0)"/>
      <use xlink:href="#DejaVuSans-73" transform="translate(448.140625 0)"/>
      <use xlink:href="#DejaVuSans-68" transform="translate(500.240234 0)"/>
      <use xlink:href="#DejaVuSans-75" transform="translate(563.619141 0)"/>
      <use xlink:href="#DejaVuSans-6d" transform="translate(626.998047 0)"/>
      <use xlink:href="#DejaVuSans-61" transform="translate(724.410156 0)"/>
      <use xlink:href="#DejaVuSans-6e" transform="translate(785.689453 0)"/>
      <use xlink:href="#DejaVuSans-69" transform="translate(849.068359 0)"/>
      <use xlink:href="#DejaVuSans-73" transform="translate(876.851562 0)"/>
      <use xlink:href="#DejaVuSans-6d" transform="translate(928.951172 0)"/>
      <use xlink:href="#DejaVuSans-75" transform="translate(1026.363281 0)"/>
      <use xlink:href="#DejaVuSans-73" transform="translate(1089.742188 0)"/>
     </g>
    </g>
    <g id="line2d_42">
     <path d="M 52.743438 332.526174 
L 63.743438 332.526174 
L 74.743437 332.526174 
" style="fill: none; stroke: #f44336; stroke-width: 2; stroke-linecap: square"/>
     <g>
      <use xlink:href="#m3609ad145d" x="63.743438" y="332.526174" style="fill: #f44336; stroke: #f44336"/>
     </g>
    </g>
    <g id="text_27">
     <!-- D11 Egalitarismus -->
     <g transform="translate(83.543438 336.376174) scale(0.11 -0.11)">
      <defs>
       <path id="DejaVuSans-67" d="M 2906 1791 
Q 2906 2416 2648 2759 
Q 2391 3103 1925 3103 
Q 1463 3103 1205 2759 
Q 947 2416 947 1791 
Q 947 1169 1205 825 
Q 1463 481 1925 481 
Q 2391 481 2648 825 
Q 2906 1169 2906 1791 
z
M 3481 434 
Q 3481 -459 3084 -895 
Q 2688 -1331 1869 -1331 
Q 1566 -1331 1297 -1286 
Q 1028 -1241 775 -1147 
L 775 -588 
Q 1028 -725 1275 -790 
Q 1522 -856 1778 -856 
Q 2344 -856 2625 -561 
Q 2906 -266 2906 331 
L 2906 616 
Q 2728 306 2450 153 
Q 2172 0 1784 0 
Q 1141 0 747 490 
Q 353 981 353 1791 
Q 353 2603 747 3093 
Q 1141 3584 1784 3584 
Q 2172 3584 2450 3431 
Q 2728 3278 2906 2969 
L 2906 3500 
L 3481 3500 
L 3481 434 
z
" transform="scale(0.015625)"/>
      </defs>
      <use xlink:href="#DejaVuSans-44"/>
      <use xlink:href="#DejaVuSans-31" transform="translate(77.001953 0)"/>
      <use xlink:href="#DejaVuSans-31" transform="translate(140.625 0)"/>
      <use xlink:href="#DejaVuSans-20" transform="translate(204.248047 0)"/>
      <use xlink:href="#DejaVuSans-45" transform="translate(236.035156 0)"/>
      <use xlink:href="#DejaVuSans-67" transform="translate(299.21875 0)"/>
      <use xlink:href="#DejaVuSans-61" transform="translate(362.695312 0)"/>
      <use xlink:href="#DejaVuSans-6c" transform="translate(423.974609 0)"/>
      <use xlink:href="#DejaVuSans-69" transform="translate(451.757812 0)"/>
      <use xlink:href="#DejaVuSans-74" transform="translate(479.541016 0)"/>
      <use xlink:href="#DejaVuSans-61" transform="translate(518.75 0)"/>
      <use xlink:href="#DejaVuSans-72" transform="translate(580.029297 0)"/>
      <use xlink:href="#DejaVuSans-69" transform="translate(621.142578 0)"/>
      <use xlink:href="#DejaVuSans-73" transform="translate(648.925781 0)"/>
      <use xlink:href="#DejaVuSans-6d" transform="translate(701.025391 0)"/>
      <use xlink:href="#DejaVuSans-75" transform="translate(798.4375 0)"/>
      <use xlink:href="#DejaVuSans-73" transform="translate(861.816406 0)"/>
     </g>
    </g>
    <g id="line2d_43">
     <path d="M 52.743438 348.672112 
L 63.743438 348.672112 
L 74.743437 348.672112 
" style="fill: none; stroke: #ff9800; stroke-width: 2; stroke-linecap: square"/>
     <g>
      <use xlink:href="#m5866cf3df4" x="63.743438" y="348.672112" style="fill: #ff9800; stroke: #ff9800"/>
     </g>
    </g>
    <g id="text_28">
     <!-- D08 Dringlichkeit -->
     <g transform="translate(83.543438 352.522112) scale(0.11 -0.11)">
      <defs>
       <path id="DejaVuSans-6b" d="M 581 4863 
L 1159 4863 
L 1159 1991 
L 2875 3500 
L 3609 3500 
L 1753 1863 
L 3688 0 
L 2938 0 
L 1159 1709 
L 1159 0 
L 581 0 
L 581 4863 
z
" transform="scale(0.015625)"/>
      </defs>
      <use xlink:href="#DejaVuSans-44"/>
      <use xlink:href="#DejaVuSans-30" transform="translate(77.001953 0)"/>
      <use xlink:href="#DejaVuSans-38" transform="translate(140.625 0)"/>
      <use xlink:href="#DejaVuSans-20" transform="translate(204.248047 0)"/>
      <use xlink:href="#DejaVuSans-44" transform="translate(236.035156 0)"/>
      <use xlink:href="#DejaVuSans-72" transform="translate(313.037109 0)"/>
      <use xlink:href="#DejaVuSans-69" transform="translate(354.150391 0)"/>
      <use xlink:href="#DejaVuSans-6e" transform="translate(381.933594 0)"/>
      <use xlink:href="#DejaVuSans-67" transform="translate(445.3125 0)"/>
      <use xlink:href="#DejaVuSans-6c" transform="translate(508.789062 0)"/>
      <use xlink:href="#DejaVuSans-69" transform="translate(536.572266 0)"/>
      <use xlink:href="#DejaVuSans-63" transform="translate(564.355469 0)"/>
      <use xlink:href="#DejaVuSans-68" transform="translate(619.335938 0)"/>
      <use xlink:href="#DejaVuSans-6b" transform="translate(682.714844 0)"/>
      <use xlink:href="#DejaVuSans-65" transform="translate(737 0)"/>
      <use xlink:href="#DejaVuSans-69" transform="translate(798.523438 0)"/>
      <use xlink:href="#DejaVuSans-74" transform="translate(826.306641 0)"/>
     </g>
    </g>
    <g id="line2d_44">
     <path d="M 52.743438 364.818049 
L 63.743438 364.818049 
L 74.743437 364.818049 
" style="fill: none; stroke: #2196f3; stroke-width: 2; stroke-linecap: square"/>
     <g>
      <use xlink:href="#m721cfaa235" x="63.743438" y="364.818049" style="fill: #2196f3; stroke: #2196f3"/>
     </g>
    </g>
    <g id="text_29">
     <!-- D01 Sendungsbewusstsein -->
     <g transform="translate(83.543438 368.668049) scale(0.11 -0.11)">
      <defs>
       <path id="DejaVuSans-53" d="M 3425 4513 
L 3425 3897 
Q 3066 4069 2747 4153 
Q 2428 4238 2131 4238 
Q 1616 4238 1336 4038 
Q 1056 3838 1056 3469 
Q 1056 3159 1242 3001 
Q 1428 2844 1947 2747 
L 2328 2669 
Q 3034 2534 3370 2195 
Q 3706 1856 3706 1288 
Q 3706 609 3251 259 
Q 2797 -91 1919 -91 
Q 1588 -91 1214 -16 
Q 841 59 441 206 
L 441 856 
Q 825 641 1194 531 
Q 1563 422 1919 422 
Q 2459 422 2753 634 
Q 3047 847 3047 1241 
Q 3047 1584 2836 1778 
Q 2625 1972 2144 2069 
L 1759 2144 
Q 1053 2284 737 2584 
Q 422 2884 422 3419 
Q 422 4038 858 4394 
Q 1294 4750 2059 4750 
Q 2388 4750 2728 4690 
Q 3069 4631 3425 4513 
z
" transform="scale(0.015625)"/>
       <path id="DejaVuSans-64" d="M 2906 2969 
L 2906 4863 
L 3481 4863 
L 3481 0 
L 2906 0 
L 2906 525 
Q 2725 213 2448 61 
Q 2172 -91 1784 -91 
Q 1150 -91 751 415 
Q 353 922 353 1747 
Q 353 2572 751 3078 
Q 1150 3584 1784 3584 
Q 2172 3584 2448 3432 
Q 2725 3281 2906 2969 
z
M 947 1747 
Q 947 1113 1208 752 
Q 1469 391 1925 391 
Q 2381 391 2643 752 
Q 2906 1113 2906 1747 
Q 2906 2381 2643 2742 
Q 2381 3103 1925 3103 
Q 1469 3103 1208 2742 
Q 947 2381 947 1747 
z
" transform="scale(0.015625)"/>
       <path id="DejaVuSans-77" d="M 269 3500 
L 844 3500 
L 1563 769 
L 2278 3500 
L 2956 3500 
L 3675 769 
L 4391 3500 
L 4966 3500 
L 4050 0 
L 3372 0 
L 2619 2869 
L 1863 0 
L 1184 0 
L 269 3500 
z
" transform="scale(0.015625)"/>
      </defs>
      <use xlink:href="#DejaVuSans-44"/>
      <use xlink:href="#DejaVuSans-30" transform="translate(77.001953 0)"/>
      <use xlink:href="#DejaVuSans-31" transform="translate(140.625 0)"/>
      <use xlink:href="#DejaVuSans-20" transform="translate(204.248047 0)"/>
      <use xlink:href="#DejaVuSans-53" transform="translate(236.035156 0)"/>
      <use xlink:href="#DejaVuSans-65" transform="translate(299.511719 0)"/>
      <use xlink:href="#DejaVuSans-6e" transform="translate(361.035156 0)"/>
      <use xlink:href="#DejaVuSans-64" transform="translate(424.414062 0)"/>
      <use xlink:href="#DejaVuSans-75" transform="translate(487.890625 0)"/>
      <use xlink:href="#DejaVuSans-6e" transform="translate(551.269531 0)"/>
      <use xlink:href="#DejaVuSans-67" transform="translate(614.648438 0)"/>
      <use xlink:href="#DejaVuSans-73" transform="translate(678.125 0)"/>
      <use xlink:href="#DejaVuSans-62" transform="translate(730.224609 0)"/>
      <use xlink:href="#DejaVuSans-65" transform="translate(793.701172 0)"/>
      <use xlink:href="#DejaVuSans-77" transform="translate(855.224609 0)"/>
      <use xlink:href="#DejaVuSans-75" transform="translate(937.011719 0)"/>
      <use xlink:href="#DejaVuSans-73" transform="translate(1000.390625 0)"/>
      <use xlink:href="#DejaVuSans-73" transform="translate(1052.490234 0)"/>
      <use xlink:href="#DejaVuSans-74" transform="translate(1104.589844 0)"/>
      <use xlink:href="#DejaVuSans-73" transform="translate(1143.798828 0)"/>
      <use xlink:href="#DejaVuSans-65" transform="translate(1195.898438 0)"/>
      <use xlink:href="#DejaVuSans-69" transform="translate(1257.421875 0)"/>
      <use xlink:href="#DejaVuSans-6e" transform="translate(1285.205078 0)"/>
     </g>
    </g>
   </g>
  </g>
 </g>
 <defs>
  <clipPath id="p7731d3ccd1">
   <rect x="42.843438" y="25.511037" width="804.58" height="355.344669"/>
  </clipPath>
 </defs>
</svg>
